<mxfile host="app.diagrams.net" modified="2024-06-20T08:55:05.430Z" agent="Mozilla/5.0 (Windows NT 10.0; Win64; x64) AppleWebKit/537.36 (KHTML, like Gecko) Chrome/125.0.0.0 Safari/537.36" etag="9VJI6aVPLkK7eUMyz-FV" version="24.5.5" type="device">
  <diagram name="Сторінка-1" id="ffoTG8Y5gUArFuWIGi5W">
    <mxGraphModel dx="1994" dy="589" grid="1" gridSize="10" guides="1" tooltips="1" connect="1" arrows="1" fold="1" page="1" pageScale="1" pageWidth="827" pageHeight="1169" math="0" shadow="0">
      <root>
        <mxCell id="0" />
        <mxCell id="1" parent="0" />
        <mxCell id="AJZXfLpTL_0F0TIFlAnt-1" value="BaseInterface" style="swimlane;fontStyle=1;align=center;verticalAlign=top;childLayout=stackLayout;horizontal=1;startSize=26;horizontalStack=0;resizeParent=1;resizeParentMax=0;resizeLast=0;collapsible=1;marginBottom=0;whiteSpace=wrap;html=1;" parent="1" vertex="1">
          <mxGeometry x="325" y="480" width="180" height="258" as="geometry" />
        </mxCell>
        <mxCell id="AJZXfLpTL_0F0TIFlAnt-2" value="+ description: str&lt;div&gt;+ NumberOptions: string&lt;/div&gt;&lt;div&gt;+Current_option: int&lt;/div&gt;&lt;div&gt;escapeAction: Action()&lt;/div&gt;&lt;div&gt;actions: list of Action&lt;/div&gt;&lt;div&gt;+action_description - list of strings&lt;/div&gt;" style="text;strokeColor=none;fillColor=none;align=left;verticalAlign=top;spacingLeft=4;spacingRight=4;overflow=hidden;rotatable=0;points=[[0,0.5],[1,0.5]];portConstraint=eastwest;whiteSpace=wrap;html=1;" parent="AJZXfLpTL_0F0TIFlAnt-1" vertex="1">
          <mxGeometry y="26" width="180" height="102" as="geometry" />
        </mxCell>
        <mxCell id="AJZXfLpTL_0F0TIFlAnt-3" value="" style="line;strokeWidth=1;fillColor=none;align=left;verticalAlign=middle;spacingTop=-1;spacingLeft=3;spacingRight=3;rotatable=0;labelPosition=right;points=[];portConstraint=eastwest;strokeColor=inherit;" parent="AJZXfLpTL_0F0TIFlAnt-1" vertex="1">
          <mxGeometry y="128" width="180" height="8" as="geometry" />
        </mxCell>
        <mxCell id="AJZXfLpTL_0F0TIFlAnt-4" value="+BaseInterface(): constructor&lt;div&gt;+BaseInterface(string): constructor&lt;/div&gt;&lt;div&gt;+AddAction(strring, Action): void&lt;/div&gt;&lt;div&gt;+Display: void&lt;/div&gt;&lt;div&gt;+private HandleUp():void&lt;/div&gt;&lt;div&gt;+private HandleDown():void&lt;/div&gt;" style="text;strokeColor=none;fillColor=none;align=left;verticalAlign=top;spacingLeft=4;spacingRight=4;overflow=hidden;rotatable=0;points=[[0,0.5],[1,0.5]];portConstraint=eastwest;whiteSpace=wrap;html=1;" parent="AJZXfLpTL_0F0TIFlAnt-1" vertex="1">
          <mxGeometry y="136" width="180" height="122" as="geometry" />
        </mxCell>
        <mxCell id="AJZXfLpTL_0F0TIFlAnt-5" value="Date" style="swimlane;fontStyle=1;align=center;verticalAlign=top;childLayout=stackLayout;horizontal=1;startSize=26;horizontalStack=0;resizeParent=1;resizeParentMax=0;resizeLast=0;collapsible=1;marginBottom=0;whiteSpace=wrap;html=1;" parent="1" vertex="1">
          <mxGeometry x="1020" y="205" width="160" height="168" as="geometry" />
        </mxCell>
        <mxCell id="AJZXfLpTL_0F0TIFlAnt-6" value="+ Day: int&lt;div&gt;+ Month: int&lt;/div&gt;&lt;div&gt;+ Year: int&lt;/div&gt;" style="text;strokeColor=none;fillColor=none;align=left;verticalAlign=top;spacingLeft=4;spacingRight=4;overflow=hidden;rotatable=0;points=[[0,0.5],[1,0.5]];portConstraint=eastwest;whiteSpace=wrap;html=1;" parent="AJZXfLpTL_0F0TIFlAnt-5" vertex="1">
          <mxGeometry y="26" width="160" height="52" as="geometry" />
        </mxCell>
        <mxCell id="AJZXfLpTL_0F0TIFlAnt-7" value="" style="line;strokeWidth=1;fillColor=none;align=left;verticalAlign=middle;spacingTop=-1;spacingLeft=3;spacingRight=3;rotatable=0;labelPosition=right;points=[];portConstraint=eastwest;strokeColor=inherit;" parent="AJZXfLpTL_0F0TIFlAnt-5" vertex="1">
          <mxGeometry y="78" width="160" height="8" as="geometry" />
        </mxCell>
        <mxCell id="AJZXfLpTL_0F0TIFlAnt-8" value="+Date(int,int,int): constructor&lt;div&gt;+Date(string)&lt;/div&gt;&lt;div&gt;DateWorld:string&lt;/div&gt;&lt;div&gt;== != &amp;gt; &amp;lt; - bool&lt;/div&gt;" style="text;strokeColor=none;fillColor=none;align=left;verticalAlign=top;spacingLeft=4;spacingRight=4;overflow=hidden;rotatable=0;points=[[0,0.5],[1,0.5]];portConstraint=eastwest;whiteSpace=wrap;html=1;" parent="AJZXfLpTL_0F0TIFlAnt-5" vertex="1">
          <mxGeometry y="86" width="160" height="82" as="geometry" />
        </mxCell>
        <mxCell id="AJZXfLpTL_0F0TIFlAnt-9" value="FileSave" style="swimlane;fontStyle=1;align=center;verticalAlign=top;childLayout=stackLayout;horizontal=1;startSize=26;horizontalStack=0;resizeParent=1;resizeParentMax=0;resizeLast=0;collapsible=1;marginBottom=0;whiteSpace=wrap;html=1;" parent="1" vertex="1">
          <mxGeometry x="1380" y="260" width="230" height="100" as="geometry" />
        </mxCell>
        <mxCell id="AJZXfLpTL_0F0TIFlAnt-10" value="+ This_path: string" style="text;strokeColor=none;fillColor=none;align=left;verticalAlign=top;spacingLeft=4;spacingRight=4;overflow=hidden;rotatable=0;points=[[0,0.5],[1,0.5]];portConstraint=eastwest;whiteSpace=wrap;html=1;" parent="AJZXfLpTL_0F0TIFlAnt-9" vertex="1">
          <mxGeometry y="26" width="230" height="26" as="geometry" />
        </mxCell>
        <mxCell id="AJZXfLpTL_0F0TIFlAnt-11" value="" style="line;strokeWidth=1;fillColor=none;align=left;verticalAlign=middle;spacingTop=-1;spacingLeft=3;spacingRight=3;rotatable=0;labelPosition=right;points=[];portConstraint=eastwest;strokeColor=inherit;" parent="AJZXfLpTL_0F0TIFlAnt-9" vertex="1">
          <mxGeometry y="52" width="230" height="8" as="geometry" />
        </mxCell>
        <mxCell id="AJZXfLpTL_0F0TIFlAnt-12" value="static SaveConfiguration():void&lt;div&gt;static LoadConfiguration():void&lt;/div&gt;" style="text;strokeColor=none;fillColor=none;align=left;verticalAlign=top;spacingLeft=4;spacingRight=4;overflow=hidden;rotatable=0;points=[[0,0.5],[1,0.5]];portConstraint=eastwest;whiteSpace=wrap;html=1;" parent="AJZXfLpTL_0F0TIFlAnt-9" vertex="1">
          <mxGeometry y="60" width="230" height="40" as="geometry" />
        </mxCell>
        <mxCell id="AJZXfLpTL_0F0TIFlAnt-13" value="Game" style="swimlane;fontStyle=1;align=center;verticalAlign=top;childLayout=stackLayout;horizontal=1;startSize=26;horizontalStack=0;resizeParent=1;resizeParentMax=0;resizeLast=0;collapsible=1;marginBottom=0;whiteSpace=wrap;html=1;" parent="1" vertex="1">
          <mxGeometry x="810" y="373" width="160" height="310" as="geometry" />
        </mxCell>
        <mxCell id="AJZXfLpTL_0F0TIFlAnt-14" value="+ static noName: Stadium&lt;div&gt;+ static gamesList: GamesList&lt;/div&gt;&lt;div&gt;+ GameDate: date&lt;/div&gt;&lt;div&gt;+ Place: Stadium&lt;/div&gt;&lt;div&gt;+ ViewersNumber: int&lt;/div&gt;&lt;div&gt;+Happenned: bool&lt;/div&gt;&lt;div&gt;+ ScoreFrist: int&lt;/div&gt;&lt;div&gt;+ScoreSecond: int&lt;/div&gt;&lt;div&gt;+Team1: string&lt;/div&gt;&lt;div&gt;+Team2: string&lt;/div&gt;" style="text;strokeColor=none;fillColor=none;align=left;verticalAlign=top;spacingLeft=4;spacingRight=4;overflow=hidden;rotatable=0;points=[[0,0.5],[1,0.5]];portConstraint=eastwest;whiteSpace=wrap;html=1;" parent="AJZXfLpTL_0F0TIFlAnt-13" vertex="1">
          <mxGeometry y="26" width="160" height="168" as="geometry" />
        </mxCell>
        <mxCell id="AJZXfLpTL_0F0TIFlAnt-15" value="" style="line;strokeWidth=1;fillColor=none;align=left;verticalAlign=middle;spacingTop=-1;spacingLeft=3;spacingRight=3;rotatable=0;labelPosition=right;points=[];portConstraint=eastwest;strokeColor=inherit;" parent="AJZXfLpTL_0F0TIFlAnt-13" vertex="1">
          <mxGeometry y="194" width="160" height="8" as="geometry" />
        </mxCell>
        <mxCell id="AJZXfLpTL_0F0TIFlAnt-16" value="+ Game(): condtructor&lt;div&gt;+ Result(): int&lt;/div&gt;&lt;div&gt;+ Info: string&lt;/div&gt;&lt;div&gt;+ to_file:string&lt;/div&gt;&lt;div&gt;+ FromFileLine(string): Game&lt;/div&gt;&lt;div&gt;+ Delete(): void&lt;/div&gt;" style="text;strokeColor=none;fillColor=none;align=left;verticalAlign=top;spacingLeft=4;spacingRight=4;overflow=hidden;rotatable=0;points=[[0,0.5],[1,0.5]];portConstraint=eastwest;whiteSpace=wrap;html=1;" parent="AJZXfLpTL_0F0TIFlAnt-13" vertex="1">
          <mxGeometry y="202" width="160" height="108" as="geometry" />
        </mxCell>
        <mxCell id="AJZXfLpTL_0F0TIFlAnt-17" value="GameMode" style="swimlane;fontStyle=1;align=center;verticalAlign=top;childLayout=stackLayout;horizontal=1;startSize=26;horizontalStack=0;resizeParent=1;resizeParentMax=0;resizeLast=0;collapsible=1;marginBottom=0;whiteSpace=wrap;html=1;" parent="1" vertex="1">
          <mxGeometry x="335" y="259" width="160" height="114" as="geometry" />
        </mxCell>
        <mxCell id="AJZXfLpTL_0F0TIFlAnt-19" value="" style="line;strokeWidth=1;fillColor=none;align=left;verticalAlign=middle;spacingTop=-1;spacingLeft=3;spacingRight=3;rotatable=0;labelPosition=right;points=[];portConstraint=eastwest;strokeColor=inherit;" parent="AJZXfLpTL_0F0TIFlAnt-17" vertex="1">
          <mxGeometry y="26" width="160" height="8" as="geometry" />
        </mxCell>
        <mxCell id="AJZXfLpTL_0F0TIFlAnt-20" value="+ AddGame(): void&lt;div&gt;+ DeleteGame(): void&lt;/div&gt;&lt;div&gt;+ ShowAllGames(): void&lt;/div&gt;&lt;div&gt;+FindGame(): void&lt;/div&gt;&lt;div&gt;+ListByOutcome(): void&lt;/div&gt;" style="text;strokeColor=none;fillColor=none;align=left;verticalAlign=top;spacingLeft=4;spacingRight=4;overflow=hidden;rotatable=0;points=[[0,0.5],[1,0.5]];portConstraint=eastwest;whiteSpace=wrap;html=1;" parent="AJZXfLpTL_0F0TIFlAnt-17" vertex="1">
          <mxGeometry y="34" width="160" height="80" as="geometry" />
        </mxCell>
        <mxCell id="AJZXfLpTL_0F0TIFlAnt-21" value="ActionsWithGame" style="swimlane;fontStyle=1;align=center;verticalAlign=top;childLayout=stackLayout;horizontal=1;startSize=26;horizontalStack=0;resizeParent=1;resizeParentMax=0;resizeLast=0;collapsible=1;marginBottom=0;whiteSpace=wrap;html=1;" parent="1" vertex="1">
          <mxGeometry x="520" y="290" width="160" height="140" as="geometry" />
        </mxCell>
        <mxCell id="AJZXfLpTL_0F0TIFlAnt-22" value="+ Selected: Game" style="text;strokeColor=none;fillColor=none;align=left;verticalAlign=top;spacingLeft=4;spacingRight=4;overflow=hidden;rotatable=0;points=[[0,0.5],[1,0.5]];portConstraint=eastwest;whiteSpace=wrap;html=1;" parent="AJZXfLpTL_0F0TIFlAnt-21" vertex="1">
          <mxGeometry y="26" width="160" height="26" as="geometry" />
        </mxCell>
        <mxCell id="AJZXfLpTL_0F0TIFlAnt-23" value="" style="line;strokeWidth=1;fillColor=none;align=left;verticalAlign=middle;spacingTop=-1;spacingLeft=3;spacingRight=3;rotatable=0;labelPosition=right;points=[];portConstraint=eastwest;strokeColor=inherit;" parent="AJZXfLpTL_0F0TIFlAnt-21" vertex="1">
          <mxGeometry y="52" width="160" height="8" as="geometry" />
        </mxCell>
        <mxCell id="AJZXfLpTL_0F0TIFlAnt-24" value="ActionsWithGame(Game) - constructor&lt;div&gt;Delete():void&lt;/div&gt;&lt;div&gt;ModifyGame():void&lt;/div&gt;&lt;div&gt;AddToGame():void&lt;/div&gt;" style="text;strokeColor=none;fillColor=none;align=left;verticalAlign=top;spacingLeft=4;spacingRight=4;overflow=hidden;rotatable=0;points=[[0,0.5],[1,0.5]];portConstraint=eastwest;whiteSpace=wrap;html=1;" parent="AJZXfLpTL_0F0TIFlAnt-21" vertex="1">
          <mxGeometry y="60" width="160" height="80" as="geometry" />
        </mxCell>
        <mxCell id="AJZXfLpTL_0F0TIFlAnt-25" value="ModifyGame" style="swimlane;fontStyle=1;align=center;verticalAlign=top;childLayout=stackLayout;horizontal=1;startSize=26;horizontalStack=0;resizeParent=1;resizeParentMax=0;resizeLast=0;collapsible=1;marginBottom=0;whiteSpace=wrap;html=1;" parent="1" vertex="1">
          <mxGeometry x="545" y="445" width="170" height="226" as="geometry" />
        </mxCell>
        <mxCell id="AJZXfLpTL_0F0TIFlAnt-26" value="+ Selected: Game" style="text;strokeColor=none;fillColor=none;align=left;verticalAlign=top;spacingLeft=4;spacingRight=4;overflow=hidden;rotatable=0;points=[[0,0.5],[1,0.5]];portConstraint=eastwest;whiteSpace=wrap;html=1;" parent="AJZXfLpTL_0F0TIFlAnt-25" vertex="1">
          <mxGeometry y="26" width="170" height="26" as="geometry" />
        </mxCell>
        <mxCell id="AJZXfLpTL_0F0TIFlAnt-27" value="" style="line;strokeWidth=1;fillColor=none;align=left;verticalAlign=middle;spacingTop=-1;spacingLeft=3;spacingRight=3;rotatable=0;labelPosition=right;points=[];portConstraint=eastwest;strokeColor=inherit;" parent="AJZXfLpTL_0F0TIFlAnt-25" vertex="1">
          <mxGeometry y="52" width="170" height="8" as="geometry" />
        </mxCell>
        <mxCell id="AJZXfLpTL_0F0TIFlAnt-28" value="+ ModifyGame(Game) - constructor&lt;div&gt;ChangeDate(): void&lt;/div&gt;&lt;div&gt;ChangePlace(): void&lt;/div&gt;&lt;div&gt;ChangeNumberOfViewers(): void&lt;/div&gt;&lt;div&gt;ChangeHappened(): void&lt;/div&gt;&lt;div&gt;ChangeScoreFirst(): void&lt;/div&gt;&lt;div&gt;ChangeScoreSecond(): void&lt;/div&gt;&lt;div&gt;FirstTeamName(): void&lt;/div&gt;&lt;div&gt;SecondTeamName(): void&lt;/div&gt;" style="text;strokeColor=none;fillColor=none;align=left;verticalAlign=top;spacingLeft=4;spacingRight=4;overflow=hidden;rotatable=0;points=[[0,0.5],[1,0.5]];portConstraint=eastwest;whiteSpace=wrap;html=1;" parent="AJZXfLpTL_0F0TIFlAnt-25" vertex="1">
          <mxGeometry y="60" width="170" height="166" as="geometry" />
        </mxCell>
        <mxCell id="AJZXfLpTL_0F0TIFlAnt-29" value="GamesList" style="swimlane;fontStyle=1;align=center;verticalAlign=top;childLayout=stackLayout;horizontal=1;startSize=26;horizontalStack=0;resizeParent=1;resizeParentMax=0;resizeLast=0;collapsible=1;marginBottom=0;whiteSpace=wrap;html=1;" parent="1" vertex="1">
          <mxGeometry x="920" y="754" width="160" height="256" as="geometry" />
        </mxCell>
        <mxCell id="AJZXfLpTL_0F0TIFlAnt-30" value="+ list: List of Games" style="text;strokeColor=none;fillColor=none;align=left;verticalAlign=top;spacingLeft=4;spacingRight=4;overflow=hidden;rotatable=0;points=[[0,0.5],[1,0.5]];portConstraint=eastwest;whiteSpace=wrap;html=1;" parent="AJZXfLpTL_0F0TIFlAnt-29" vertex="1">
          <mxGeometry y="26" width="160" height="26" as="geometry" />
        </mxCell>
        <mxCell id="AJZXfLpTL_0F0TIFlAnt-31" value="" style="line;strokeWidth=1;fillColor=none;align=left;verticalAlign=middle;spacingTop=-1;spacingLeft=3;spacingRight=3;rotatable=0;labelPosition=right;points=[];portConstraint=eastwest;strokeColor=inherit;" parent="AJZXfLpTL_0F0TIFlAnt-29" vertex="1">
          <mxGeometry y="52" width="160" height="8" as="geometry" />
        </mxCell>
        <mxCell id="AJZXfLpTL_0F0TIFlAnt-32" value="+GamesList() constructor&lt;div&gt;+Add(Game): void&lt;/div&gt;&lt;div&gt;+ GetEnumerator()&lt;/div&gt;&lt;div&gt;+ GetInfoByResult()&lt;/div&gt;&lt;div&gt;+GetWon()&lt;/div&gt;&lt;div&gt;+GetLost()&lt;/div&gt;&lt;div&gt;+GetDraw()&lt;/div&gt;&lt;div&gt;+GetPlanned()&lt;/div&gt;&lt;div&gt;+GamesInfo(): IEnumerable&lt;/div&gt;&lt;div&gt;+this[string, Date]: Game&lt;/div&gt;&lt;div&gt;+Sorted: bool&lt;/div&gt;&lt;div&gt;+SortGames(): void&lt;/div&gt;&lt;div&gt;+Remove(Game): void&lt;/div&gt;" style="text;strokeColor=none;fillColor=none;align=left;verticalAlign=top;spacingLeft=4;spacingRight=4;overflow=hidden;rotatable=0;points=[[0,0.5],[1,0.5]];portConstraint=eastwest;whiteSpace=wrap;html=1;" parent="AJZXfLpTL_0F0TIFlAnt-29" vertex="1">
          <mxGeometry y="60" width="160" height="196" as="geometry" />
        </mxCell>
        <mxCell id="AJZXfLpTL_0F0TIFlAnt-33" value="GetArgumentsScreen" style="swimlane;fontStyle=1;align=center;verticalAlign=top;childLayout=stackLayout;horizontal=1;startSize=26;horizontalStack=0;resizeParent=1;resizeParentMax=0;resizeLast=0;collapsible=1;marginBottom=0;whiteSpace=wrap;html=1;" parent="1" vertex="1">
          <mxGeometry x="1370" y="410" width="190" height="120" as="geometry" />
        </mxCell>
        <mxCell id="AJZXfLpTL_0F0TIFlAnt-34" value="+ description: string&lt;div&gt;+arguments: List of strings&lt;/div&gt;" style="text;strokeColor=none;fillColor=none;align=left;verticalAlign=top;spacingLeft=4;spacingRight=4;overflow=hidden;rotatable=0;points=[[0,0.5],[1,0.5]];portConstraint=eastwest;whiteSpace=wrap;html=1;" parent="AJZXfLpTL_0F0TIFlAnt-33" vertex="1">
          <mxGeometry y="26" width="190" height="32" as="geometry" />
        </mxCell>
        <mxCell id="AJZXfLpTL_0F0TIFlAnt-35" value="" style="line;strokeWidth=1;fillColor=none;align=left;verticalAlign=middle;spacingTop=-1;spacingLeft=3;spacingRight=3;rotatable=0;labelPosition=right;points=[];portConstraint=eastwest;strokeColor=inherit;" parent="AJZXfLpTL_0F0TIFlAnt-33" vertex="1">
          <mxGeometry y="58" width="190" height="8" as="geometry" />
        </mxCell>
        <mxCell id="AJZXfLpTL_0F0TIFlAnt-36" value="+GetArgumentsScreen(string[]): constructor&lt;div&gt;+ArgLine(): string&lt;/div&gt;" style="text;strokeColor=none;fillColor=none;align=left;verticalAlign=top;spacingLeft=4;spacingRight=4;overflow=hidden;rotatable=0;points=[[0,0.5],[1,0.5]];portConstraint=eastwest;whiteSpace=wrap;html=1;" parent="AJZXfLpTL_0F0TIFlAnt-33" vertex="1">
          <mxGeometry y="66" width="190" height="54" as="geometry" />
        </mxCell>
        <mxCell id="AJZXfLpTL_0F0TIFlAnt-37" value="Player" style="swimlane;fontStyle=1;align=center;verticalAlign=top;childLayout=stackLayout;horizontal=1;startSize=26;horizontalStack=0;resizeParent=1;resizeParentMax=0;resizeLast=0;collapsible=1;marginBottom=0;whiteSpace=wrap;html=1;" parent="1" vertex="1">
          <mxGeometry x="770" width="170" height="270" as="geometry" />
        </mxCell>
        <mxCell id="AJZXfLpTL_0F0TIFlAnt-38" value="+ static PlayerList: Players&lt;div&gt;+ Name: string&lt;/div&gt;&lt;div&gt;+ Surname: string&lt;/div&gt;&lt;div&gt;+ BirthDate: Date&lt;/div&gt;&lt;div&gt;+ Status: string&lt;/div&gt;&lt;div&gt;+ HealthStatus: string&lt;/div&gt;&lt;div&gt;+ Salary: double&lt;/div&gt;" style="text;strokeColor=none;fillColor=none;align=left;verticalAlign=top;spacingLeft=4;spacingRight=4;overflow=hidden;rotatable=0;points=[[0,0.5],[1,0.5]];portConstraint=eastwest;whiteSpace=wrap;html=1;" parent="AJZXfLpTL_0F0TIFlAnt-37" vertex="1">
          <mxGeometry y="26" width="170" height="114" as="geometry" />
        </mxCell>
        <mxCell id="AJZXfLpTL_0F0TIFlAnt-39" value="" style="line;strokeWidth=1;fillColor=none;align=left;verticalAlign=middle;spacingTop=-1;spacingLeft=3;spacingRight=3;rotatable=0;labelPosition=right;points=[];portConstraint=eastwest;strokeColor=inherit;" parent="AJZXfLpTL_0F0TIFlAnt-37" vertex="1">
          <mxGeometry y="140" width="170" height="8" as="geometry" />
        </mxCell>
        <mxCell id="AJZXfLpTL_0F0TIFlAnt-40" value="+ Info: string&lt;div&gt;+ Player(string, string, Date, string, string, double) - constructor&lt;/div&gt;&lt;div&gt;+ Player() - constructor&lt;/div&gt;&lt;div&gt;+ Delete(): void&lt;/div&gt;&lt;div&gt;+ to_file: string&lt;/div&gt;&lt;div&gt;+ FromFileLine(string): Player&lt;/div&gt;" style="text;strokeColor=none;fillColor=none;align=left;verticalAlign=top;spacingLeft=4;spacingRight=4;overflow=hidden;rotatable=0;points=[[0,0.5],[1,0.5]];portConstraint=eastwest;whiteSpace=wrap;html=1;" parent="AJZXfLpTL_0F0TIFlAnt-37" vertex="1">
          <mxGeometry y="148" width="170" height="122" as="geometry" />
        </mxCell>
        <mxCell id="AJZXfLpTL_0F0TIFlAnt-41" value="Players" style="swimlane;fontStyle=1;align=center;verticalAlign=top;childLayout=stackLayout;horizontal=1;startSize=26;horizontalStack=0;resizeParent=1;resizeParentMax=0;resizeLast=0;collapsible=1;marginBottom=0;whiteSpace=wrap;html=1;" parent="1" vertex="1">
          <mxGeometry x="1010" y="30" width="190" height="160" as="geometry" />
        </mxCell>
        <mxCell id="AJZXfLpTL_0F0TIFlAnt-42" value="+ list: List of Player" style="text;strokeColor=none;fillColor=none;align=left;verticalAlign=top;spacingLeft=4;spacingRight=4;overflow=hidden;rotatable=0;points=[[0,0.5],[1,0.5]];portConstraint=eastwest;whiteSpace=wrap;html=1;" parent="AJZXfLpTL_0F0TIFlAnt-41" vertex="1">
          <mxGeometry y="26" width="190" height="26" as="geometry" />
        </mxCell>
        <mxCell id="AJZXfLpTL_0F0TIFlAnt-43" value="" style="line;strokeWidth=1;fillColor=none;align=left;verticalAlign=middle;spacingTop=-1;spacingLeft=3;spacingRight=3;rotatable=0;labelPosition=right;points=[];portConstraint=eastwest;strokeColor=inherit;" parent="AJZXfLpTL_0F0TIFlAnt-41" vertex="1">
          <mxGeometry y="52" width="190" height="8" as="geometry" />
        </mxCell>
        <mxCell id="AJZXfLpTL_0F0TIFlAnt-44" value="+ Players(): constructor&lt;div&gt;+ Add(Player): void&lt;/div&gt;&lt;div&gt;+ GetEnumerator(): IEnumerator&lt;/div&gt;&lt;div&gt;+ PlayersInfo(): IEnumerator&lt;/div&gt;&lt;div&gt;+this[string]: Player&lt;/div&gt;&lt;div&gt;Remove(Player): void&lt;/div&gt;" style="text;strokeColor=none;fillColor=none;align=left;verticalAlign=top;spacingLeft=4;spacingRight=4;overflow=hidden;rotatable=0;points=[[0,0.5],[1,0.5]];portConstraint=eastwest;whiteSpace=wrap;html=1;" parent="AJZXfLpTL_0F0TIFlAnt-41" vertex="1">
          <mxGeometry y="60" width="190" height="100" as="geometry" />
        </mxCell>
        <mxCell id="AJZXfLpTL_0F0TIFlAnt-45" value="PlayerMode" style="swimlane;fontStyle=1;align=center;verticalAlign=top;childLayout=stackLayout;horizontal=1;startSize=26;horizontalStack=0;resizeParent=1;resizeParentMax=0;resizeLast=0;collapsible=1;marginBottom=0;whiteSpace=wrap;html=1;" parent="1" vertex="1">
          <mxGeometry x="95" y="680" width="160" height="114" as="geometry" />
        </mxCell>
        <mxCell id="AJZXfLpTL_0F0TIFlAnt-47" value="" style="line;strokeWidth=1;fillColor=none;align=left;verticalAlign=middle;spacingTop=-1;spacingLeft=3;spacingRight=3;rotatable=0;labelPosition=right;points=[];portConstraint=eastwest;strokeColor=inherit;" parent="AJZXfLpTL_0F0TIFlAnt-45" vertex="1">
          <mxGeometry y="26" width="160" height="8" as="geometry" />
        </mxCell>
        <mxCell id="AJZXfLpTL_0F0TIFlAnt-48" value="+ PlayerMode()&lt;div&gt;+AddPlayer(): void&lt;/div&gt;&lt;div&gt;+DeletePlayer(): void&lt;/div&gt;&lt;div&gt;+ShowAllPlayers(): void&lt;/div&gt;&lt;div&gt;+FindPlayer(): void&lt;/div&gt;" style="text;strokeColor=none;fillColor=none;align=left;verticalAlign=top;spacingLeft=4;spacingRight=4;overflow=hidden;rotatable=0;points=[[0,0.5],[1,0.5]];portConstraint=eastwest;whiteSpace=wrap;html=1;" parent="AJZXfLpTL_0F0TIFlAnt-45" vertex="1">
          <mxGeometry y="34" width="160" height="80" as="geometry" />
        </mxCell>
        <mxCell id="AJZXfLpTL_0F0TIFlAnt-49" value="ActionsWithPlayer" style="swimlane;fontStyle=1;align=center;verticalAlign=top;childLayout=stackLayout;horizontal=1;startSize=26;horizontalStack=0;resizeParent=1;resizeParentMax=0;resizeLast=0;collapsible=1;marginBottom=0;whiteSpace=wrap;html=1;" parent="1" vertex="1">
          <mxGeometry x="105" y="495" width="160" height="126" as="geometry" />
        </mxCell>
        <mxCell id="AJZXfLpTL_0F0TIFlAnt-50" value="+Selected:Player" style="text;strokeColor=none;fillColor=none;align=left;verticalAlign=top;spacingLeft=4;spacingRight=4;overflow=hidden;rotatable=0;points=[[0,0.5],[1,0.5]];portConstraint=eastwest;whiteSpace=wrap;html=1;" parent="AJZXfLpTL_0F0TIFlAnt-49" vertex="1">
          <mxGeometry y="26" width="160" height="26" as="geometry" />
        </mxCell>
        <mxCell id="AJZXfLpTL_0F0TIFlAnt-51" value="" style="line;strokeWidth=1;fillColor=none;align=left;verticalAlign=middle;spacingTop=-1;spacingLeft=3;spacingRight=3;rotatable=0;labelPosition=right;points=[];portConstraint=eastwest;strokeColor=inherit;" parent="AJZXfLpTL_0F0TIFlAnt-49" vertex="1">
          <mxGeometry y="52" width="160" height="8" as="geometry" />
        </mxCell>
        <mxCell id="AJZXfLpTL_0F0TIFlAnt-52" value="+ActionsWithPlayer(Player)&lt;div&gt;+Delete():void&lt;/div&gt;&lt;div&gt;+ModifyPlayer():void&lt;/div&gt;&lt;div&gt;+AddToGame():void&lt;/div&gt;" style="text;strokeColor=none;fillColor=none;align=left;verticalAlign=top;spacingLeft=4;spacingRight=4;overflow=hidden;rotatable=0;points=[[0,0.5],[1,0.5]];portConstraint=eastwest;whiteSpace=wrap;html=1;" parent="AJZXfLpTL_0F0TIFlAnt-49" vertex="1">
          <mxGeometry y="60" width="160" height="66" as="geometry" />
        </mxCell>
        <mxCell id="AJZXfLpTL_0F0TIFlAnt-53" value="ModifyPlayer" style="swimlane;fontStyle=1;align=center;verticalAlign=top;childLayout=stackLayout;horizontal=1;startSize=26;horizontalStack=0;resizeParent=1;resizeParentMax=0;resizeLast=0;collapsible=1;marginBottom=0;whiteSpace=wrap;html=1;" parent="1" vertex="1">
          <mxGeometry x="115" y="294" width="160" height="166" as="geometry" />
        </mxCell>
        <mxCell id="AJZXfLpTL_0F0TIFlAnt-54" value="+Selected: Player" style="text;strokeColor=none;fillColor=none;align=left;verticalAlign=top;spacingLeft=4;spacingRight=4;overflow=hidden;rotatable=0;points=[[0,0.5],[1,0.5]];portConstraint=eastwest;whiteSpace=wrap;html=1;" parent="AJZXfLpTL_0F0TIFlAnt-53" vertex="1">
          <mxGeometry y="26" width="160" height="26" as="geometry" />
        </mxCell>
        <mxCell id="AJZXfLpTL_0F0TIFlAnt-55" value="" style="line;strokeWidth=1;fillColor=none;align=left;verticalAlign=middle;spacingTop=-1;spacingLeft=3;spacingRight=3;rotatable=0;labelPosition=right;points=[];portConstraint=eastwest;strokeColor=inherit;" parent="AJZXfLpTL_0F0TIFlAnt-53" vertex="1">
          <mxGeometry y="52" width="160" height="8" as="geometry" />
        </mxCell>
        <mxCell id="AJZXfLpTL_0F0TIFlAnt-56" value="+ModifyPlayer(Player)&lt;div&gt;+ChangeName():void&lt;/div&gt;&lt;div&gt;+ChangeSurname():void&lt;/div&gt;&lt;div&gt;+ChangeStatus():void&lt;/div&gt;&lt;div&gt;+ChangeHealthStatus():void&lt;/div&gt;&lt;div&gt;+ChangeBirthDate():void&lt;/div&gt;&lt;div&gt;+ChangeSalary():void&lt;/div&gt;" style="text;strokeColor=none;fillColor=none;align=left;verticalAlign=top;spacingLeft=4;spacingRight=4;overflow=hidden;rotatable=0;points=[[0,0.5],[1,0.5]];portConstraint=eastwest;whiteSpace=wrap;html=1;" parent="AJZXfLpTL_0F0TIFlAnt-53" vertex="1">
          <mxGeometry y="60" width="160" height="106" as="geometry" />
        </mxCell>
        <mxCell id="AJZXfLpTL_0F0TIFlAnt-57" value="Stadium" style="swimlane;fontStyle=1;align=center;verticalAlign=top;childLayout=stackLayout;horizontal=1;startSize=26;horizontalStack=0;resizeParent=1;resizeParentMax=0;resizeLast=0;collapsible=1;marginBottom=0;whiteSpace=wrap;html=1;" parent="1" vertex="1">
          <mxGeometry x="1200" y="714" width="220" height="256" as="geometry" />
        </mxCell>
        <mxCell id="AJZXfLpTL_0F0TIFlAnt-58" value="+static StdiumList: StadiumList&lt;div&gt;+ static NoName:string&lt;/div&gt;&lt;div&gt;+static Unnamed:bool&lt;/div&gt;&lt;div&gt;+name:string&lt;/div&gt;&lt;div&gt;+number_of_seats: int&lt;/div&gt;&lt;div&gt;+price_per_seat: float&lt;/div&gt;&lt;div&gt;+planned_games: GamesList&lt;/div&gt;" style="text;strokeColor=none;fillColor=none;align=left;verticalAlign=top;spacingLeft=4;spacingRight=4;overflow=hidden;rotatable=0;points=[[0,0.5],[1,0.5]];portConstraint=eastwest;whiteSpace=wrap;html=1;" parent="AJZXfLpTL_0F0TIFlAnt-57" vertex="1">
          <mxGeometry y="26" width="220" height="114" as="geometry" />
        </mxCell>
        <mxCell id="AJZXfLpTL_0F0TIFlAnt-59" value="" style="line;strokeWidth=1;fillColor=none;align=left;verticalAlign=middle;spacingTop=-1;spacingLeft=3;spacingRight=3;rotatable=0;labelPosition=right;points=[];portConstraint=eastwest;strokeColor=inherit;" parent="AJZXfLpTL_0F0TIFlAnt-57" vertex="1">
          <mxGeometry y="140" width="220" height="8" as="geometry" />
        </mxCell>
        <mxCell id="AJZXfLpTL_0F0TIFlAnt-60" value="+Stadium(string)&lt;div&gt;+Stadium()&lt;/div&gt;&lt;div&gt;+Indo: string&lt;/div&gt;&lt;div&gt;+to_file:string&lt;/div&gt;&lt;div&gt;+FromFileLine(string):Stadium&lt;/div&gt;&lt;div&gt;+RemovePlannedGame(Game):void&lt;/div&gt;&lt;div&gt;+Delete(): void&lt;/div&gt;" style="text;strokeColor=none;fillColor=none;align=left;verticalAlign=top;spacingLeft=4;spacingRight=4;overflow=hidden;rotatable=0;points=[[0,0.5],[1,0.5]];portConstraint=eastwest;whiteSpace=wrap;html=1;" parent="AJZXfLpTL_0F0TIFlAnt-57" vertex="1">
          <mxGeometry y="148" width="220" height="108" as="geometry" />
        </mxCell>
        <mxCell id="AJZXfLpTL_0F0TIFlAnt-61" value="StadiumList" style="swimlane;fontStyle=1;align=center;verticalAlign=top;childLayout=stackLayout;horizontal=1;startSize=26;horizontalStack=0;resizeParent=1;resizeParentMax=0;resizeLast=0;collapsible=1;marginBottom=0;whiteSpace=wrap;html=1;" parent="1" vertex="1">
          <mxGeometry x="1460" y="695" width="180" height="160" as="geometry" />
        </mxCell>
        <mxCell id="AJZXfLpTL_0F0TIFlAnt-62" value="+list: List of Stadium" style="text;strokeColor=none;fillColor=none;align=left;verticalAlign=top;spacingLeft=4;spacingRight=4;overflow=hidden;rotatable=0;points=[[0,0.5],[1,0.5]];portConstraint=eastwest;whiteSpace=wrap;html=1;" parent="AJZXfLpTL_0F0TIFlAnt-61" vertex="1">
          <mxGeometry y="26" width="180" height="26" as="geometry" />
        </mxCell>
        <mxCell id="AJZXfLpTL_0F0TIFlAnt-63" value="" style="line;strokeWidth=1;fillColor=none;align=left;verticalAlign=middle;spacingTop=-1;spacingLeft=3;spacingRight=3;rotatable=0;labelPosition=right;points=[];portConstraint=eastwest;strokeColor=inherit;" parent="AJZXfLpTL_0F0TIFlAnt-61" vertex="1">
          <mxGeometry y="52" width="180" height="8" as="geometry" />
        </mxCell>
        <mxCell id="AJZXfLpTL_0F0TIFlAnt-64" value="+StadiumList()&lt;div&gt;+Add(Stadium):void&lt;/div&gt;&lt;div&gt;+GetEnumerator():IEnumerator&lt;/div&gt;&lt;div&gt;+this[string]:Stadium&lt;/div&gt;&lt;div&gt;+StadiumsInfo():IEnumerator&lt;/div&gt;&lt;div&gt;+Remove(Stadium):void&lt;/div&gt;" style="text;strokeColor=none;fillColor=none;align=left;verticalAlign=top;spacingLeft=4;spacingRight=4;overflow=hidden;rotatable=0;points=[[0,0.5],[1,0.5]];portConstraint=eastwest;whiteSpace=wrap;html=1;" parent="AJZXfLpTL_0F0TIFlAnt-61" vertex="1">
          <mxGeometry y="60" width="180" height="100" as="geometry" />
        </mxCell>
        <mxCell id="AJZXfLpTL_0F0TIFlAnt-65" value="StadiumMode" style="swimlane;fontStyle=1;align=center;verticalAlign=top;childLayout=stackLayout;horizontal=1;startSize=26;horizontalStack=0;resizeParent=1;resizeParentMax=0;resizeLast=0;collapsible=1;marginBottom=0;whiteSpace=wrap;html=1;" parent="1" vertex="1">
          <mxGeometry x="585" y="745" width="150" height="120" as="geometry" />
        </mxCell>
        <mxCell id="AJZXfLpTL_0F0TIFlAnt-67" value="" style="line;strokeWidth=1;fillColor=none;align=left;verticalAlign=middle;spacingTop=-1;spacingLeft=3;spacingRight=3;rotatable=0;labelPosition=right;points=[];portConstraint=eastwest;strokeColor=inherit;" parent="AJZXfLpTL_0F0TIFlAnt-65" vertex="1">
          <mxGeometry y="26" width="150" height="8" as="geometry" />
        </mxCell>
        <mxCell id="AJZXfLpTL_0F0TIFlAnt-68" value="+ StadiumMode()&lt;div&gt;+AddStadium():void&lt;/div&gt;&lt;div&gt;+DeleteStadium():void&lt;/div&gt;&lt;div&gt;+ShowAllStadiums():void&lt;/div&gt;&lt;div&gt;+FindStadium():void&lt;/div&gt;" style="text;strokeColor=none;fillColor=none;align=left;verticalAlign=top;spacingLeft=4;spacingRight=4;overflow=hidden;rotatable=0;points=[[0,0.5],[1,0.5]];portConstraint=eastwest;whiteSpace=wrap;html=1;" parent="AJZXfLpTL_0F0TIFlAnt-65" vertex="1">
          <mxGeometry y="34" width="150" height="86" as="geometry" />
        </mxCell>
        <mxCell id="AJZXfLpTL_0F0TIFlAnt-69" value="ActionsWithStadium" style="swimlane;fontStyle=1;align=center;verticalAlign=top;childLayout=stackLayout;horizontal=1;startSize=26;horizontalStack=0;resizeParent=1;resizeParentMax=0;resizeLast=0;collapsible=1;marginBottom=0;whiteSpace=wrap;html=1;" parent="1" vertex="1">
          <mxGeometry x="345" y="794" width="180" height="170" as="geometry" />
        </mxCell>
        <mxCell id="AJZXfLpTL_0F0TIFlAnt-70" value="+ Selected: Stadium" style="text;strokeColor=none;fillColor=none;align=left;verticalAlign=top;spacingLeft=4;spacingRight=4;overflow=hidden;rotatable=0;points=[[0,0.5],[1,0.5]];portConstraint=eastwest;whiteSpace=wrap;html=1;" parent="AJZXfLpTL_0F0TIFlAnt-69" vertex="1">
          <mxGeometry y="26" width="180" height="26" as="geometry" />
        </mxCell>
        <mxCell id="AJZXfLpTL_0F0TIFlAnt-71" value="" style="line;strokeWidth=1;fillColor=none;align=left;verticalAlign=middle;spacingTop=-1;spacingLeft=3;spacingRight=3;rotatable=0;labelPosition=right;points=[];portConstraint=eastwest;strokeColor=inherit;" parent="AJZXfLpTL_0F0TIFlAnt-69" vertex="1">
          <mxGeometry y="52" width="180" height="8" as="geometry" />
        </mxCell>
        <mxCell id="AJZXfLpTL_0F0TIFlAnt-72" value="+ActionsWithStadium(Stadium)&lt;div&gt;+Delete():void&lt;/div&gt;&lt;div&gt;+ModifyStadium():void&lt;/div&gt;&lt;div&gt;+AddToStadium():void&lt;/div&gt;&lt;div&gt;+ShowPlannedGames():void&lt;/div&gt;&lt;div&gt;+ListByDate():void&lt;/div&gt;&lt;div&gt;+ListByOutcome():void&lt;/div&gt;" style="text;strokeColor=none;fillColor=none;align=left;verticalAlign=top;spacingLeft=4;spacingRight=4;overflow=hidden;rotatable=0;points=[[0,0.5],[1,0.5]];portConstraint=eastwest;whiteSpace=wrap;html=1;" parent="AJZXfLpTL_0F0TIFlAnt-69" vertex="1">
          <mxGeometry y="60" width="180" height="110" as="geometry" />
        </mxCell>
        <mxCell id="AJZXfLpTL_0F0TIFlAnt-73" value="ModifyStadium" style="swimlane;fontStyle=1;align=center;verticalAlign=top;childLayout=stackLayout;horizontal=1;startSize=26;horizontalStack=0;resizeParent=1;resizeParentMax=0;resizeLast=0;collapsible=1;marginBottom=0;whiteSpace=wrap;html=1;" parent="1" vertex="1">
          <mxGeometry x="105" y="855" width="180" height="130" as="geometry" />
        </mxCell>
        <mxCell id="AJZXfLpTL_0F0TIFlAnt-74" value="+Selected:Stadium" style="text;strokeColor=none;fillColor=none;align=left;verticalAlign=top;spacingLeft=4;spacingRight=4;overflow=hidden;rotatable=0;points=[[0,0.5],[1,0.5]];portConstraint=eastwest;whiteSpace=wrap;html=1;" parent="AJZXfLpTL_0F0TIFlAnt-73" vertex="1">
          <mxGeometry y="26" width="180" height="26" as="geometry" />
        </mxCell>
        <mxCell id="AJZXfLpTL_0F0TIFlAnt-75" value="" style="line;strokeWidth=1;fillColor=none;align=left;verticalAlign=middle;spacingTop=-1;spacingLeft=3;spacingRight=3;rotatable=0;labelPosition=right;points=[];portConstraint=eastwest;strokeColor=inherit;" parent="AJZXfLpTL_0F0TIFlAnt-73" vertex="1">
          <mxGeometry y="52" width="180" height="8" as="geometry" />
        </mxCell>
        <mxCell id="AJZXfLpTL_0F0TIFlAnt-76" value="+ModifyStadium(Stadium)&lt;div&gt;+ChangeName():void&lt;/div&gt;&lt;div&gt;+ChangeNumberOfSeats():void&lt;/div&gt;&lt;div&gt;+ChangePrice():void&lt;/div&gt;" style="text;strokeColor=none;fillColor=none;align=left;verticalAlign=top;spacingLeft=4;spacingRight=4;overflow=hidden;rotatable=0;points=[[0,0.5],[1,0.5]];portConstraint=eastwest;whiteSpace=wrap;html=1;" parent="AJZXfLpTL_0F0TIFlAnt-73" vertex="1">
          <mxGeometry y="60" width="180" height="70" as="geometry" />
        </mxCell>
        <mxCell id="AJZXfLpTL_0F0TIFlAnt-77" value="Validate" style="swimlane;fontStyle=1;align=center;verticalAlign=top;childLayout=stackLayout;horizontal=1;startSize=26;horizontalStack=0;resizeParent=1;resizeParentMax=0;resizeLast=0;collapsible=1;marginBottom=0;whiteSpace=wrap;html=1;" parent="1" vertex="1">
          <mxGeometry x="1130" y="475" width="170" height="100" as="geometry" />
        </mxCell>
        <mxCell id="AJZXfLpTL_0F0TIFlAnt-79" value="" style="line;strokeWidth=1;fillColor=none;align=left;verticalAlign=middle;spacingTop=-1;spacingLeft=3;spacingRight=3;rotatable=0;labelPosition=right;points=[];portConstraint=eastwest;strokeColor=inherit;" parent="AJZXfLpTL_0F0TIFlAnt-77" vertex="1">
          <mxGeometry y="26" width="170" height="8" as="geometry" />
        </mxCell>
        <mxCell id="AJZXfLpTL_0F0TIFlAnt-80" value="+validate_int(string): int&lt;div&gt;+validate_float(string):float&lt;/div&gt;&lt;div&gt;+validate_date(string):Date&lt;/div&gt;&lt;div&gt;+validate_string(string):string&lt;/div&gt;" style="text;strokeColor=none;fillColor=none;align=left;verticalAlign=top;spacingLeft=4;spacingRight=4;overflow=hidden;rotatable=0;points=[[0,0.5],[1,0.5]];portConstraint=eastwest;whiteSpace=wrap;html=1;" parent="AJZXfLpTL_0F0TIFlAnt-77" vertex="1">
          <mxGeometry y="34" width="170" height="66" as="geometry" />
        </mxCell>
        <mxCell id="AJZXfLpTL_0F0TIFlAnt-81" value="" style="endArrow=block;endSize=16;endFill=0;html=1;rounded=0;" parent="1" source="AJZXfLpTL_0F0TIFlAnt-45" target="AJZXfLpTL_0F0TIFlAnt-1" edge="1">
          <mxGeometry width="160" relative="1" as="geometry">
            <mxPoint x="715" y="695" as="sourcePoint" />
            <mxPoint x="875" y="695" as="targetPoint" />
          </mxGeometry>
        </mxCell>
        <mxCell id="AJZXfLpTL_0F0TIFlAnt-82" value="" style="endArrow=block;endSize=16;endFill=0;html=1;rounded=0;" parent="1" source="AJZXfLpTL_0F0TIFlAnt-49" target="AJZXfLpTL_0F0TIFlAnt-1" edge="1">
          <mxGeometry width="160" relative="1" as="geometry">
            <mxPoint x="265" y="704" as="sourcePoint" />
            <mxPoint x="345" y="662" as="targetPoint" />
          </mxGeometry>
        </mxCell>
        <mxCell id="AJZXfLpTL_0F0TIFlAnt-83" value="" style="endArrow=block;endSize=16;endFill=0;html=1;rounded=0;" parent="1" source="AJZXfLpTL_0F0TIFlAnt-53" target="AJZXfLpTL_0F0TIFlAnt-1" edge="1">
          <mxGeometry width="160" relative="1" as="geometry">
            <mxPoint x="275" y="583" as="sourcePoint" />
            <mxPoint x="345" y="597" as="targetPoint" />
          </mxGeometry>
        </mxCell>
        <mxCell id="AJZXfLpTL_0F0TIFlAnt-84" value="" style="endArrow=block;endSize=16;endFill=0;html=1;rounded=0;" parent="1" source="AJZXfLpTL_0F0TIFlAnt-17" target="AJZXfLpTL_0F0TIFlAnt-1" edge="1">
          <mxGeometry width="160" relative="1" as="geometry">
            <mxPoint x="289" y="451" as="sourcePoint" />
            <mxPoint x="345" y="513" as="targetPoint" />
          </mxGeometry>
        </mxCell>
        <mxCell id="AJZXfLpTL_0F0TIFlAnt-85" value="" style="endArrow=block;endSize=16;endFill=0;html=1;rounded=0;" parent="1" source="AJZXfLpTL_0F0TIFlAnt-21" target="AJZXfLpTL_0F0TIFlAnt-1" edge="1">
          <mxGeometry width="160" relative="1" as="geometry">
            <mxPoint x="427" y="383" as="sourcePoint" />
            <mxPoint x="431" y="485" as="targetPoint" />
          </mxGeometry>
        </mxCell>
        <mxCell id="AJZXfLpTL_0F0TIFlAnt-86" value="" style="endArrow=block;endSize=16;endFill=0;html=1;rounded=0;" parent="1" source="AJZXfLpTL_0F0TIFlAnt-25" target="AJZXfLpTL_0F0TIFlAnt-1" edge="1">
          <mxGeometry width="160" relative="1" as="geometry">
            <mxPoint x="576" y="415" as="sourcePoint" />
            <mxPoint x="525" y="487" as="targetPoint" />
          </mxGeometry>
        </mxCell>
        <mxCell id="AJZXfLpTL_0F0TIFlAnt-87" value="" style="endArrow=block;endSize=16;endFill=0;html=1;rounded=0;" parent="1" source="AJZXfLpTL_0F0TIFlAnt-65" target="AJZXfLpTL_0F0TIFlAnt-1" edge="1">
          <mxGeometry width="160" relative="1" as="geometry">
            <mxPoint x="555" y="587" as="sourcePoint" />
            <mxPoint x="525" y="594" as="targetPoint" />
          </mxGeometry>
        </mxCell>
        <mxCell id="AJZXfLpTL_0F0TIFlAnt-88" value="" style="endArrow=block;endSize=16;endFill=0;html=1;rounded=0;" parent="1" source="AJZXfLpTL_0F0TIFlAnt-69" target="AJZXfLpTL_0F0TIFlAnt-1" edge="1">
          <mxGeometry width="160" relative="1" as="geometry">
            <mxPoint x="600" y="755" as="sourcePoint" />
            <mxPoint x="525" y="691" as="targetPoint" />
          </mxGeometry>
        </mxCell>
        <mxCell id="AJZXfLpTL_0F0TIFlAnt-89" value="" style="endArrow=block;endSize=16;endFill=0;html=1;rounded=0;" parent="1" source="AJZXfLpTL_0F0TIFlAnt-73" target="AJZXfLpTL_0F0TIFlAnt-1" edge="1">
          <mxGeometry width="160" relative="1" as="geometry">
            <mxPoint x="265" y="865" as="sourcePoint" />
            <mxPoint x="440" y="743" as="targetPoint" />
          </mxGeometry>
        </mxCell>
        <mxCell id="AJZXfLpTL_0F0TIFlAnt-90" value="" style="endArrow=none;endFill=0;endSize=24;html=1;rounded=0;startArrow=diamondThin;startFill=1;strokeWidth=2;targetPerimeterSpacing=0;startSize=22;" parent="1" source="AJZXfLpTL_0F0TIFlAnt-5" target="AJZXfLpTL_0F0TIFlAnt-13" edge="1">
          <mxGeometry width="160" relative="1" as="geometry">
            <mxPoint x="820" y="770" as="sourcePoint" />
            <mxPoint x="860" y="960" as="targetPoint" />
          </mxGeometry>
        </mxCell>
        <mxCell id="AJZXfLpTL_0F0TIFlAnt-91" value="" style="endArrow=none;endFill=0;endSize=24;html=1;rounded=0;startArrow=diamondThin;startFill=1;strokeWidth=2;targetPerimeterSpacing=0;startSize=22;" parent="1" source="AJZXfLpTL_0F0TIFlAnt-5" target="AJZXfLpTL_0F0TIFlAnt-37" edge="1">
          <mxGeometry width="160" relative="1" as="geometry">
            <mxPoint x="1180" y="320" as="sourcePoint" />
            <mxPoint x="1240" y="260" as="targetPoint" />
          </mxGeometry>
        </mxCell>
        <mxCell id="AJZXfLpTL_0F0TIFlAnt-92" value="" style="endArrow=diamondThin;endFill=0;endSize=24;html=1;rounded=0;" parent="1" source="AJZXfLpTL_0F0TIFlAnt-57" target="AJZXfLpTL_0F0TIFlAnt-29" edge="1">
          <mxGeometry width="160" relative="1" as="geometry">
            <mxPoint x="1130" y="850" as="sourcePoint" />
            <mxPoint x="1170" y="900" as="targetPoint" />
          </mxGeometry>
        </mxCell>
        <mxCell id="AJZXfLpTL_0F0TIFlAnt-94" value="" style="endArrow=none;html=1;edgeStyle=orthogonalEdgeStyle;rounded=0;" parent="1" source="AJZXfLpTL_0F0TIFlAnt-37" target="AJZXfLpTL_0F0TIFlAnt-41" edge="1">
          <mxGeometry relative="1" as="geometry">
            <mxPoint x="1310" y="140" as="sourcePoint" />
            <mxPoint x="1470" y="140" as="targetPoint" />
            <Array as="points">
              <mxPoint x="925" y="130" />
              <mxPoint x="925" y="110" />
            </Array>
          </mxGeometry>
        </mxCell>
        <mxCell id="AJZXfLpTL_0F0TIFlAnt-95" value="0..." style="edgeLabel;resizable=0;html=1;align=left;verticalAlign=bottom;" parent="AJZXfLpTL_0F0TIFlAnt-94" connectable="0" vertex="1">
          <mxGeometry x="-1" relative="1" as="geometry" />
        </mxCell>
        <mxCell id="AJZXfLpTL_0F0TIFlAnt-96" value="1..." style="edgeLabel;resizable=0;html=1;align=right;verticalAlign=bottom;" parent="AJZXfLpTL_0F0TIFlAnt-94" connectable="0" vertex="1">
          <mxGeometry x="1" relative="1" as="geometry" />
        </mxCell>
        <mxCell id="AJZXfLpTL_0F0TIFlAnt-97" value="" style="endArrow=none;html=1;edgeStyle=orthogonalEdgeStyle;rounded=0;" parent="1" source="AJZXfLpTL_0F0TIFlAnt-57" target="AJZXfLpTL_0F0TIFlAnt-61" edge="1">
          <mxGeometry relative="1" as="geometry">
            <mxPoint x="1524" y="620" as="sourcePoint" />
            <mxPoint x="1653" y="520" as="targetPoint" />
          </mxGeometry>
        </mxCell>
        <mxCell id="AJZXfLpTL_0F0TIFlAnt-98" value="0..." style="edgeLabel;resizable=0;html=1;align=left;verticalAlign=bottom;" parent="AJZXfLpTL_0F0TIFlAnt-97" connectable="0" vertex="1">
          <mxGeometry x="-1" relative="1" as="geometry" />
        </mxCell>
        <mxCell id="AJZXfLpTL_0F0TIFlAnt-99" value="1..." style="edgeLabel;resizable=0;html=1;align=right;verticalAlign=bottom;" parent="AJZXfLpTL_0F0TIFlAnt-97" connectable="0" vertex="1">
          <mxGeometry x="1" relative="1" as="geometry" />
        </mxCell>
        <mxCell id="AJZXfLpTL_0F0TIFlAnt-104" value="" style="endArrow=none;html=1;edgeStyle=orthogonalEdgeStyle;rounded=0;" parent="1" source="AJZXfLpTL_0F0TIFlAnt-25" target="AJZXfLpTL_0F0TIFlAnt-13" edge="1">
          <mxGeometry relative="1" as="geometry">
            <mxPoint x="800" y="786" as="sourcePoint" />
            <mxPoint x="870" y="714" as="targetPoint" />
            <Array as="points">
              <mxPoint x="888" y="520" />
              <mxPoint x="888" y="535" />
            </Array>
          </mxGeometry>
        </mxCell>
        <mxCell id="AJZXfLpTL_0F0TIFlAnt-105" value="0..." style="edgeLabel;resizable=0;html=1;align=left;verticalAlign=bottom;" parent="AJZXfLpTL_0F0TIFlAnt-104" connectable="0" vertex="1">
          <mxGeometry x="-1" relative="1" as="geometry" />
        </mxCell>
        <mxCell id="AJZXfLpTL_0F0TIFlAnt-106" value="1..." style="edgeLabel;resizable=0;html=1;align=right;verticalAlign=bottom;" parent="AJZXfLpTL_0F0TIFlAnt-104" connectable="0" vertex="1">
          <mxGeometry x="1" relative="1" as="geometry" />
        </mxCell>
        <mxCell id="AJZXfLpTL_0F0TIFlAnt-107" value="" style="endArrow=none;html=1;edgeStyle=orthogonalEdgeStyle;rounded=0;" parent="1" source="AJZXfLpTL_0F0TIFlAnt-21" target="AJZXfLpTL_0F0TIFlAnt-13" edge="1">
          <mxGeometry relative="1" as="geometry">
            <mxPoint x="725" y="530" as="sourcePoint" />
            <mxPoint x="1070" y="545" as="targetPoint" />
            <Array as="points">
              <mxPoint x="898" y="340" />
              <mxPoint x="898" y="430" />
            </Array>
          </mxGeometry>
        </mxCell>
        <mxCell id="AJZXfLpTL_0F0TIFlAnt-108" value="0..." style="edgeLabel;resizable=0;html=1;align=left;verticalAlign=bottom;" parent="AJZXfLpTL_0F0TIFlAnt-107" connectable="0" vertex="1">
          <mxGeometry x="-1" relative="1" as="geometry" />
        </mxCell>
        <mxCell id="AJZXfLpTL_0F0TIFlAnt-109" value="1..." style="edgeLabel;resizable=0;html=1;align=right;verticalAlign=bottom;" parent="AJZXfLpTL_0F0TIFlAnt-107" connectable="0" vertex="1">
          <mxGeometry x="1" relative="1" as="geometry" />
        </mxCell>
        <mxCell id="AJZXfLpTL_0F0TIFlAnt-110" value="" style="endArrow=open;html=1;endSize=12;startArrow=diamondThin;startSize=14;startFill=0;edgeStyle=orthogonalEdgeStyle;align=left;verticalAlign=bottom;rounded=0;" parent="1" source="AJZXfLpTL_0F0TIFlAnt-41" target="AJZXfLpTL_0F0TIFlAnt-37" edge="1">
          <mxGeometry x="-1" y="3" relative="1" as="geometry">
            <mxPoint x="380" y="40" as="sourcePoint" />
            <mxPoint x="600" y="50" as="targetPoint" />
            <Array as="points">
              <mxPoint x="950" y="130" />
              <mxPoint x="950" y="160" />
            </Array>
          </mxGeometry>
        </mxCell>
        <mxCell id="AJZXfLpTL_0F0TIFlAnt-111" value="" style="endArrow=none;html=1;edgeStyle=orthogonalEdgeStyle;rounded=0;" parent="1" source="AJZXfLpTL_0F0TIFlAnt-13" target="AJZXfLpTL_0F0TIFlAnt-29" edge="1">
          <mxGeometry relative="1" as="geometry">
            <mxPoint x="1430" y="852" as="sourcePoint" />
            <mxPoint x="1500" y="780" as="targetPoint" />
          </mxGeometry>
        </mxCell>
        <mxCell id="AJZXfLpTL_0F0TIFlAnt-112" value="0..." style="edgeLabel;resizable=0;html=1;align=left;verticalAlign=bottom;" parent="AJZXfLpTL_0F0TIFlAnt-111" connectable="0" vertex="1">
          <mxGeometry x="-1" relative="1" as="geometry" />
        </mxCell>
        <mxCell id="AJZXfLpTL_0F0TIFlAnt-113" value="1..." style="edgeLabel;resizable=0;html=1;align=right;verticalAlign=bottom;" parent="AJZXfLpTL_0F0TIFlAnt-111" connectable="0" vertex="1">
          <mxGeometry x="1" relative="1" as="geometry" />
        </mxCell>
        <mxCell id="AJZXfLpTL_0F0TIFlAnt-114" value="" style="endArrow=none;html=1;edgeStyle=orthogonalEdgeStyle;rounded=0;" parent="1" source="AJZXfLpTL_0F0TIFlAnt-53" target="AJZXfLpTL_0F0TIFlAnt-37" edge="1">
          <mxGeometry relative="1" as="geometry">
            <mxPoint x="-210" y="373" as="sourcePoint" />
            <mxPoint x="-7" y="406" as="targetPoint" />
            <Array as="points">
              <mxPoint x="200" y="140" />
            </Array>
          </mxGeometry>
        </mxCell>
        <mxCell id="AJZXfLpTL_0F0TIFlAnt-115" value="0..." style="edgeLabel;resizable=0;html=1;align=left;verticalAlign=bottom;" parent="AJZXfLpTL_0F0TIFlAnt-114" connectable="0" vertex="1">
          <mxGeometry x="-1" relative="1" as="geometry" />
        </mxCell>
        <mxCell id="AJZXfLpTL_0F0TIFlAnt-116" value="1" style="edgeLabel;resizable=0;html=1;align=right;verticalAlign=bottom;" parent="AJZXfLpTL_0F0TIFlAnt-114" connectable="0" vertex="1">
          <mxGeometry x="1" relative="1" as="geometry" />
        </mxCell>
        <mxCell id="AJZXfLpTL_0F0TIFlAnt-117" value="" style="endArrow=none;html=1;edgeStyle=orthogonalEdgeStyle;rounded=0;" parent="1" source="AJZXfLpTL_0F0TIFlAnt-49" target="AJZXfLpTL_0F0TIFlAnt-37" edge="1">
          <mxGeometry relative="1" as="geometry">
            <mxPoint x="125" y="383" as="sourcePoint" />
            <mxPoint x="50" y="150" as="targetPoint" />
            <Array as="points">
              <mxPoint x="40" y="570" />
              <mxPoint x="40" y="90" />
            </Array>
          </mxGeometry>
        </mxCell>
        <mxCell id="AJZXfLpTL_0F0TIFlAnt-118" value="0..." style="edgeLabel;resizable=0;html=1;align=left;verticalAlign=bottom;" parent="AJZXfLpTL_0F0TIFlAnt-117" connectable="0" vertex="1">
          <mxGeometry x="-1" relative="1" as="geometry" />
        </mxCell>
        <mxCell id="AJZXfLpTL_0F0TIFlAnt-119" value="1" style="edgeLabel;resizable=0;html=1;align=right;verticalAlign=bottom;" parent="AJZXfLpTL_0F0TIFlAnt-117" connectable="0" vertex="1">
          <mxGeometry x="1" relative="1" as="geometry" />
        </mxCell>
        <mxCell id="AJZXfLpTL_0F0TIFlAnt-124" value="" style="endArrow=none;html=1;edgeStyle=orthogonalEdgeStyle;rounded=0;" parent="1" source="AJZXfLpTL_0F0TIFlAnt-69" target="AJZXfLpTL_0F0TIFlAnt-57" edge="1">
          <mxGeometry relative="1" as="geometry">
            <mxPoint x="784.94" y="1410" as="sourcePoint" />
            <mxPoint x="719.94" y="930" as="targetPoint" />
            <Array as="points">
              <mxPoint x="435" y="1020" />
              <mxPoint x="1310" y="1020" />
            </Array>
          </mxGeometry>
        </mxCell>
        <mxCell id="AJZXfLpTL_0F0TIFlAnt-125" value="0..." style="edgeLabel;resizable=0;html=1;align=left;verticalAlign=bottom;" parent="AJZXfLpTL_0F0TIFlAnt-124" connectable="0" vertex="1">
          <mxGeometry x="-1" relative="1" as="geometry" />
        </mxCell>
        <mxCell id="AJZXfLpTL_0F0TIFlAnt-126" value="1" style="edgeLabel;resizable=0;html=1;align=right;verticalAlign=bottom;" parent="AJZXfLpTL_0F0TIFlAnt-124" connectable="0" vertex="1">
          <mxGeometry x="1" relative="1" as="geometry" />
        </mxCell>
        <mxCell id="AJZXfLpTL_0F0TIFlAnt-127" value="" style="endArrow=none;html=1;edgeStyle=orthogonalEdgeStyle;rounded=0;" parent="1" source="AJZXfLpTL_0F0TIFlAnt-73" target="AJZXfLpTL_0F0TIFlAnt-57" edge="1">
          <mxGeometry relative="1" as="geometry">
            <mxPoint x="440" y="1060" as="sourcePoint" />
            <mxPoint x="1315" y="1066" as="targetPoint" />
            <Array as="points">
              <mxPoint x="230" y="1080" />
              <mxPoint x="1340" y="1080" />
            </Array>
          </mxGeometry>
        </mxCell>
        <mxCell id="AJZXfLpTL_0F0TIFlAnt-128" value="0..." style="edgeLabel;resizable=0;html=1;align=left;verticalAlign=bottom;" parent="AJZXfLpTL_0F0TIFlAnt-127" connectable="0" vertex="1">
          <mxGeometry x="-1" relative="1" as="geometry" />
        </mxCell>
        <mxCell id="AJZXfLpTL_0F0TIFlAnt-129" value="1" style="edgeLabel;resizable=0;html=1;align=right;verticalAlign=bottom;" parent="AJZXfLpTL_0F0TIFlAnt-127" connectable="0" vertex="1">
          <mxGeometry x="1" relative="1" as="geometry" />
        </mxCell>
        <mxCell id="AJZXfLpTL_0F0TIFlAnt-130" value="BaseInterface" style="swimlane;fontStyle=1;align=center;verticalAlign=top;childLayout=stackLayout;horizontal=1;startSize=26;horizontalStack=0;resizeParent=1;resizeParentMax=0;resizeLast=0;collapsible=1;marginBottom=0;whiteSpace=wrap;html=1;" parent="1" vertex="1">
          <mxGeometry x="-460" y="401" width="180" height="258" as="geometry" />
        </mxCell>
        <mxCell id="AJZXfLpTL_0F0TIFlAnt-131" value="+ description: str&lt;div&gt;+ NumberOptions: string&lt;/div&gt;&lt;div&gt;+Current_option: int&lt;/div&gt;&lt;div&gt;escapeAction: Action()&lt;/div&gt;&lt;div&gt;actions: list of Action&lt;/div&gt;&lt;div&gt;+action_description - list of strings&lt;/div&gt;" style="text;strokeColor=none;fillColor=none;align=left;verticalAlign=top;spacingLeft=4;spacingRight=4;overflow=hidden;rotatable=0;points=[[0,0.5],[1,0.5]];portConstraint=eastwest;whiteSpace=wrap;html=1;" parent="AJZXfLpTL_0F0TIFlAnt-130" vertex="1">
          <mxGeometry y="26" width="180" height="102" as="geometry" />
        </mxCell>
        <mxCell id="AJZXfLpTL_0F0TIFlAnt-132" value="" style="line;strokeWidth=1;fillColor=none;align=left;verticalAlign=middle;spacingTop=-1;spacingLeft=3;spacingRight=3;rotatable=0;labelPosition=right;points=[];portConstraint=eastwest;strokeColor=inherit;" parent="AJZXfLpTL_0F0TIFlAnt-130" vertex="1">
          <mxGeometry y="128" width="180" height="8" as="geometry" />
        </mxCell>
        <mxCell id="AJZXfLpTL_0F0TIFlAnt-133" value="+BaseInterface(): constructor&lt;div&gt;+BaseInterface(string): constructor&lt;/div&gt;&lt;div&gt;+AddAction(strring, Action): void&lt;/div&gt;&lt;div&gt;+Display: void&lt;/div&gt;&lt;div&gt;+private HandleUp():void&lt;/div&gt;&lt;div&gt;+private HandleDown():void&lt;/div&gt;" style="text;strokeColor=none;fillColor=none;align=left;verticalAlign=top;spacingLeft=4;spacingRight=4;overflow=hidden;rotatable=0;points=[[0,0.5],[1,0.5]];portConstraint=eastwest;whiteSpace=wrap;html=1;" parent="AJZXfLpTL_0F0TIFlAnt-130" vertex="1">
          <mxGeometry y="136" width="180" height="122" as="geometry" />
        </mxCell>
        <mxCell id="AJZXfLpTL_0F0TIFlAnt-134" value="GameMode" style="swimlane;fontStyle=1;align=center;verticalAlign=top;childLayout=stackLayout;horizontal=1;startSize=26;horizontalStack=0;resizeParent=1;resizeParentMax=0;resizeLast=0;collapsible=1;marginBottom=0;whiteSpace=wrap;html=1;" parent="1" vertex="1">
          <mxGeometry x="-450" y="180" width="160" height="114" as="geometry" />
        </mxCell>
        <mxCell id="AJZXfLpTL_0F0TIFlAnt-135" value="" style="line;strokeWidth=1;fillColor=none;align=left;verticalAlign=middle;spacingTop=-1;spacingLeft=3;spacingRight=3;rotatable=0;labelPosition=right;points=[];portConstraint=eastwest;strokeColor=inherit;" parent="AJZXfLpTL_0F0TIFlAnt-134" vertex="1">
          <mxGeometry y="26" width="160" height="8" as="geometry" />
        </mxCell>
        <mxCell id="AJZXfLpTL_0F0TIFlAnt-136" value="+ AddGame(): void&lt;div&gt;+ DeleteGame(): void&lt;/div&gt;&lt;div&gt;+ ShowAllGames(): void&lt;/div&gt;&lt;div&gt;+FindGame(): void&lt;/div&gt;&lt;div&gt;+ListByOutcome(): void&lt;/div&gt;" style="text;strokeColor=none;fillColor=none;align=left;verticalAlign=top;spacingLeft=4;spacingRight=4;overflow=hidden;rotatable=0;points=[[0,0.5],[1,0.5]];portConstraint=eastwest;whiteSpace=wrap;html=1;" parent="AJZXfLpTL_0F0TIFlAnt-134" vertex="1">
          <mxGeometry y="34" width="160" height="80" as="geometry" />
        </mxCell>
        <mxCell id="AJZXfLpTL_0F0TIFlAnt-137" value="ActionsWithGame" style="swimlane;fontStyle=1;align=center;verticalAlign=top;childLayout=stackLayout;horizontal=1;startSize=26;horizontalStack=0;resizeParent=1;resizeParentMax=0;resizeLast=0;collapsible=1;marginBottom=0;whiteSpace=wrap;html=1;" parent="1" vertex="1">
          <mxGeometry x="-265" y="211" width="160" height="140" as="geometry" />
        </mxCell>
        <mxCell id="AJZXfLpTL_0F0TIFlAnt-138" value="+ Selected: Game" style="text;strokeColor=none;fillColor=none;align=left;verticalAlign=top;spacingLeft=4;spacingRight=4;overflow=hidden;rotatable=0;points=[[0,0.5],[1,0.5]];portConstraint=eastwest;whiteSpace=wrap;html=1;" parent="AJZXfLpTL_0F0TIFlAnt-137" vertex="1">
          <mxGeometry y="26" width="160" height="26" as="geometry" />
        </mxCell>
        <mxCell id="AJZXfLpTL_0F0TIFlAnt-139" value="" style="line;strokeWidth=1;fillColor=none;align=left;verticalAlign=middle;spacingTop=-1;spacingLeft=3;spacingRight=3;rotatable=0;labelPosition=right;points=[];portConstraint=eastwest;strokeColor=inherit;" parent="AJZXfLpTL_0F0TIFlAnt-137" vertex="1">
          <mxGeometry y="52" width="160" height="8" as="geometry" />
        </mxCell>
        <mxCell id="AJZXfLpTL_0F0TIFlAnt-140" value="ActionsWithGame(Game) - constructor&lt;div&gt;Delete():void&lt;/div&gt;&lt;div&gt;ModifyGame():void&lt;/div&gt;&lt;div&gt;AddToGame():void&lt;/div&gt;" style="text;strokeColor=none;fillColor=none;align=left;verticalAlign=top;spacingLeft=4;spacingRight=4;overflow=hidden;rotatable=0;points=[[0,0.5],[1,0.5]];portConstraint=eastwest;whiteSpace=wrap;html=1;" parent="AJZXfLpTL_0F0TIFlAnt-137" vertex="1">
          <mxGeometry y="60" width="160" height="80" as="geometry" />
        </mxCell>
        <mxCell id="AJZXfLpTL_0F0TIFlAnt-141" value="ModifyGame" style="swimlane;fontStyle=1;align=center;verticalAlign=top;childLayout=stackLayout;horizontal=1;startSize=26;horizontalStack=0;resizeParent=1;resizeParentMax=0;resizeLast=0;collapsible=1;marginBottom=0;whiteSpace=wrap;html=1;" parent="1" vertex="1">
          <mxGeometry x="-240" y="366" width="170" height="226" as="geometry" />
        </mxCell>
        <mxCell id="AJZXfLpTL_0F0TIFlAnt-142" value="+ Selected: Game" style="text;strokeColor=none;fillColor=none;align=left;verticalAlign=top;spacingLeft=4;spacingRight=4;overflow=hidden;rotatable=0;points=[[0,0.5],[1,0.5]];portConstraint=eastwest;whiteSpace=wrap;html=1;" parent="AJZXfLpTL_0F0TIFlAnt-141" vertex="1">
          <mxGeometry y="26" width="170" height="26" as="geometry" />
        </mxCell>
        <mxCell id="AJZXfLpTL_0F0TIFlAnt-143" value="" style="line;strokeWidth=1;fillColor=none;align=left;verticalAlign=middle;spacingTop=-1;spacingLeft=3;spacingRight=3;rotatable=0;labelPosition=right;points=[];portConstraint=eastwest;strokeColor=inherit;" parent="AJZXfLpTL_0F0TIFlAnt-141" vertex="1">
          <mxGeometry y="52" width="170" height="8" as="geometry" />
        </mxCell>
        <mxCell id="AJZXfLpTL_0F0TIFlAnt-144" value="+ ModifyGame(Game) - constructor&lt;div&gt;ChangeDate(): void&lt;/div&gt;&lt;div&gt;ChangePlace(): void&lt;/div&gt;&lt;div&gt;ChangeNumberOfViewers(): void&lt;/div&gt;&lt;div&gt;ChangeHappened(): void&lt;/div&gt;&lt;div&gt;ChangeScoreFirst(): void&lt;/div&gt;&lt;div&gt;ChangeScoreSecond(): void&lt;/div&gt;&lt;div&gt;FirstTeamName(): void&lt;/div&gt;&lt;div&gt;SecondTeamName(): void&lt;/div&gt;" style="text;strokeColor=none;fillColor=none;align=left;verticalAlign=top;spacingLeft=4;spacingRight=4;overflow=hidden;rotatable=0;points=[[0,0.5],[1,0.5]];portConstraint=eastwest;whiteSpace=wrap;html=1;" parent="AJZXfLpTL_0F0TIFlAnt-141" vertex="1">
          <mxGeometry y="60" width="170" height="166" as="geometry" />
        </mxCell>
        <mxCell id="AJZXfLpTL_0F0TIFlAnt-145" value="PlayerMode" style="swimlane;fontStyle=1;align=center;verticalAlign=top;childLayout=stackLayout;horizontal=1;startSize=26;horizontalStack=0;resizeParent=1;resizeParentMax=0;resizeLast=0;collapsible=1;marginBottom=0;whiteSpace=wrap;html=1;" parent="1" vertex="1">
          <mxGeometry x="-690" y="601" width="160" height="114" as="geometry" />
        </mxCell>
        <mxCell id="AJZXfLpTL_0F0TIFlAnt-146" value="" style="line;strokeWidth=1;fillColor=none;align=left;verticalAlign=middle;spacingTop=-1;spacingLeft=3;spacingRight=3;rotatable=0;labelPosition=right;points=[];portConstraint=eastwest;strokeColor=inherit;" parent="AJZXfLpTL_0F0TIFlAnt-145" vertex="1">
          <mxGeometry y="26" width="160" height="8" as="geometry" />
        </mxCell>
        <mxCell id="AJZXfLpTL_0F0TIFlAnt-147" value="+ PlayerMode()&lt;div&gt;+AddPlayer(): void&lt;/div&gt;&lt;div&gt;+DeletePlayer(): void&lt;/div&gt;&lt;div&gt;+ShowAllPlayers(): void&lt;/div&gt;&lt;div&gt;+FindPlayer(): void&lt;/div&gt;" style="text;strokeColor=none;fillColor=none;align=left;verticalAlign=top;spacingLeft=4;spacingRight=4;overflow=hidden;rotatable=0;points=[[0,0.5],[1,0.5]];portConstraint=eastwest;whiteSpace=wrap;html=1;" parent="AJZXfLpTL_0F0TIFlAnt-145" vertex="1">
          <mxGeometry y="34" width="160" height="80" as="geometry" />
        </mxCell>
        <mxCell id="AJZXfLpTL_0F0TIFlAnt-148" value="ActionsWithPlayer" style="swimlane;fontStyle=1;align=center;verticalAlign=top;childLayout=stackLayout;horizontal=1;startSize=26;horizontalStack=0;resizeParent=1;resizeParentMax=0;resizeLast=0;collapsible=1;marginBottom=0;whiteSpace=wrap;html=1;" parent="1" vertex="1">
          <mxGeometry x="-680" y="416" width="160" height="126" as="geometry" />
        </mxCell>
        <mxCell id="AJZXfLpTL_0F0TIFlAnt-149" value="+Selected:Player" style="text;strokeColor=none;fillColor=none;align=left;verticalAlign=top;spacingLeft=4;spacingRight=4;overflow=hidden;rotatable=0;points=[[0,0.5],[1,0.5]];portConstraint=eastwest;whiteSpace=wrap;html=1;" parent="AJZXfLpTL_0F0TIFlAnt-148" vertex="1">
          <mxGeometry y="26" width="160" height="26" as="geometry" />
        </mxCell>
        <mxCell id="AJZXfLpTL_0F0TIFlAnt-150" value="" style="line;strokeWidth=1;fillColor=none;align=left;verticalAlign=middle;spacingTop=-1;spacingLeft=3;spacingRight=3;rotatable=0;labelPosition=right;points=[];portConstraint=eastwest;strokeColor=inherit;" parent="AJZXfLpTL_0F0TIFlAnt-148" vertex="1">
          <mxGeometry y="52" width="160" height="8" as="geometry" />
        </mxCell>
        <mxCell id="AJZXfLpTL_0F0TIFlAnt-151" value="+ActionsWithPlayer(Player)&lt;div&gt;+Delete():void&lt;/div&gt;&lt;div&gt;+ModifyPlayer():void&lt;/div&gt;&lt;div&gt;+AddToGame():void&lt;/div&gt;" style="text;strokeColor=none;fillColor=none;align=left;verticalAlign=top;spacingLeft=4;spacingRight=4;overflow=hidden;rotatable=0;points=[[0,0.5],[1,0.5]];portConstraint=eastwest;whiteSpace=wrap;html=1;" parent="AJZXfLpTL_0F0TIFlAnt-148" vertex="1">
          <mxGeometry y="60" width="160" height="66" as="geometry" />
        </mxCell>
        <mxCell id="AJZXfLpTL_0F0TIFlAnt-152" value="ModifyPlayer" style="swimlane;fontStyle=1;align=center;verticalAlign=top;childLayout=stackLayout;horizontal=1;startSize=26;horizontalStack=0;resizeParent=1;resizeParentMax=0;resizeLast=0;collapsible=1;marginBottom=0;whiteSpace=wrap;html=1;" parent="1" vertex="1">
          <mxGeometry x="-670" y="215" width="160" height="166" as="geometry" />
        </mxCell>
        <mxCell id="AJZXfLpTL_0F0TIFlAnt-153" value="+Selected: Player" style="text;strokeColor=none;fillColor=none;align=left;verticalAlign=top;spacingLeft=4;spacingRight=4;overflow=hidden;rotatable=0;points=[[0,0.5],[1,0.5]];portConstraint=eastwest;whiteSpace=wrap;html=1;" parent="AJZXfLpTL_0F0TIFlAnt-152" vertex="1">
          <mxGeometry y="26" width="160" height="26" as="geometry" />
        </mxCell>
        <mxCell id="AJZXfLpTL_0F0TIFlAnt-154" value="" style="line;strokeWidth=1;fillColor=none;align=left;verticalAlign=middle;spacingTop=-1;spacingLeft=3;spacingRight=3;rotatable=0;labelPosition=right;points=[];portConstraint=eastwest;strokeColor=inherit;" parent="AJZXfLpTL_0F0TIFlAnt-152" vertex="1">
          <mxGeometry y="52" width="160" height="8" as="geometry" />
        </mxCell>
        <mxCell id="AJZXfLpTL_0F0TIFlAnt-155" value="+ModifyPlayer(Player)&lt;div&gt;+ChangeName():void&lt;/div&gt;&lt;div&gt;+ChangeSurname():void&lt;/div&gt;&lt;div&gt;+ChangeStatus():void&lt;/div&gt;&lt;div&gt;+ChangeHealthStatus():void&lt;/div&gt;&lt;div&gt;+ChangeBirthDate():void&lt;/div&gt;&lt;div&gt;+ChangeSalary():void&lt;/div&gt;" style="text;strokeColor=none;fillColor=none;align=left;verticalAlign=top;spacingLeft=4;spacingRight=4;overflow=hidden;rotatable=0;points=[[0,0.5],[1,0.5]];portConstraint=eastwest;whiteSpace=wrap;html=1;" parent="AJZXfLpTL_0F0TIFlAnt-152" vertex="1">
          <mxGeometry y="60" width="160" height="106" as="geometry" />
        </mxCell>
        <mxCell id="AJZXfLpTL_0F0TIFlAnt-156" value="StadiumMode" style="swimlane;fontStyle=1;align=center;verticalAlign=top;childLayout=stackLayout;horizontal=1;startSize=26;horizontalStack=0;resizeParent=1;resizeParentMax=0;resizeLast=0;collapsible=1;marginBottom=0;whiteSpace=wrap;html=1;" parent="1" vertex="1">
          <mxGeometry x="-200" y="666" width="150" height="120" as="geometry" />
        </mxCell>
        <mxCell id="AJZXfLpTL_0F0TIFlAnt-157" value="" style="line;strokeWidth=1;fillColor=none;align=left;verticalAlign=middle;spacingTop=-1;spacingLeft=3;spacingRight=3;rotatable=0;labelPosition=right;points=[];portConstraint=eastwest;strokeColor=inherit;" parent="AJZXfLpTL_0F0TIFlAnt-156" vertex="1">
          <mxGeometry y="26" width="150" height="8" as="geometry" />
        </mxCell>
        <mxCell id="AJZXfLpTL_0F0TIFlAnt-158" value="+ StadiumMode()&lt;div&gt;+AddStadium():void&lt;/div&gt;&lt;div&gt;+DeleteStadium():void&lt;/div&gt;&lt;div&gt;+ShowAllStadiums():void&lt;/div&gt;&lt;div&gt;+FindStadium():void&lt;/div&gt;" style="text;strokeColor=none;fillColor=none;align=left;verticalAlign=top;spacingLeft=4;spacingRight=4;overflow=hidden;rotatable=0;points=[[0,0.5],[1,0.5]];portConstraint=eastwest;whiteSpace=wrap;html=1;" parent="AJZXfLpTL_0F0TIFlAnt-156" vertex="1">
          <mxGeometry y="34" width="150" height="86" as="geometry" />
        </mxCell>
        <mxCell id="AJZXfLpTL_0F0TIFlAnt-159" value="ActionsWithStadium" style="swimlane;fontStyle=1;align=center;verticalAlign=top;childLayout=stackLayout;horizontal=1;startSize=26;horizontalStack=0;resizeParent=1;resizeParentMax=0;resizeLast=0;collapsible=1;marginBottom=0;whiteSpace=wrap;html=1;" parent="1" vertex="1">
          <mxGeometry x="-440" y="715" width="180" height="170" as="geometry" />
        </mxCell>
        <mxCell id="AJZXfLpTL_0F0TIFlAnt-160" value="+ Selected: Stadium" style="text;strokeColor=none;fillColor=none;align=left;verticalAlign=top;spacingLeft=4;spacingRight=4;overflow=hidden;rotatable=0;points=[[0,0.5],[1,0.5]];portConstraint=eastwest;whiteSpace=wrap;html=1;" parent="AJZXfLpTL_0F0TIFlAnt-159" vertex="1">
          <mxGeometry y="26" width="180" height="26" as="geometry" />
        </mxCell>
        <mxCell id="AJZXfLpTL_0F0TIFlAnt-161" value="" style="line;strokeWidth=1;fillColor=none;align=left;verticalAlign=middle;spacingTop=-1;spacingLeft=3;spacingRight=3;rotatable=0;labelPosition=right;points=[];portConstraint=eastwest;strokeColor=inherit;" parent="AJZXfLpTL_0F0TIFlAnt-159" vertex="1">
          <mxGeometry y="52" width="180" height="8" as="geometry" />
        </mxCell>
        <mxCell id="AJZXfLpTL_0F0TIFlAnt-162" value="+ActionsWithStadium(Stadium)&lt;div&gt;+Delete():void&lt;/div&gt;&lt;div&gt;+ModifyStadium():void&lt;/div&gt;&lt;div&gt;+AddToStadium():void&lt;/div&gt;&lt;div&gt;+ShowPlannedGames():void&lt;/div&gt;&lt;div&gt;+ListByDate():void&lt;/div&gt;&lt;div&gt;+ListByOutcome():void&lt;/div&gt;" style="text;strokeColor=none;fillColor=none;align=left;verticalAlign=top;spacingLeft=4;spacingRight=4;overflow=hidden;rotatable=0;points=[[0,0.5],[1,0.5]];portConstraint=eastwest;whiteSpace=wrap;html=1;" parent="AJZXfLpTL_0F0TIFlAnt-159" vertex="1">
          <mxGeometry y="60" width="180" height="110" as="geometry" />
        </mxCell>
        <mxCell id="AJZXfLpTL_0F0TIFlAnt-163" value="ModifyStadium" style="swimlane;fontStyle=1;align=center;verticalAlign=top;childLayout=stackLayout;horizontal=1;startSize=26;horizontalStack=0;resizeParent=1;resizeParentMax=0;resizeLast=0;collapsible=1;marginBottom=0;whiteSpace=wrap;html=1;" parent="1" vertex="1">
          <mxGeometry x="-680" y="776" width="180" height="130" as="geometry" />
        </mxCell>
        <mxCell id="AJZXfLpTL_0F0TIFlAnt-164" value="+Selected:Stadium" style="text;strokeColor=none;fillColor=none;align=left;verticalAlign=top;spacingLeft=4;spacingRight=4;overflow=hidden;rotatable=0;points=[[0,0.5],[1,0.5]];portConstraint=eastwest;whiteSpace=wrap;html=1;" parent="AJZXfLpTL_0F0TIFlAnt-163" vertex="1">
          <mxGeometry y="26" width="180" height="26" as="geometry" />
        </mxCell>
        <mxCell id="AJZXfLpTL_0F0TIFlAnt-165" value="" style="line;strokeWidth=1;fillColor=none;align=left;verticalAlign=middle;spacingTop=-1;spacingLeft=3;spacingRight=3;rotatable=0;labelPosition=right;points=[];portConstraint=eastwest;strokeColor=inherit;" parent="AJZXfLpTL_0F0TIFlAnt-163" vertex="1">
          <mxGeometry y="52" width="180" height="8" as="geometry" />
        </mxCell>
        <mxCell id="AJZXfLpTL_0F0TIFlAnt-166" value="+ModifyStadium(Stadium)&lt;div&gt;+ChangeName():void&lt;/div&gt;&lt;div&gt;+ChangeNumberOfSeats():void&lt;/div&gt;&lt;div&gt;+ChangePrice():void&lt;/div&gt;" style="text;strokeColor=none;fillColor=none;align=left;verticalAlign=top;spacingLeft=4;spacingRight=4;overflow=hidden;rotatable=0;points=[[0,0.5],[1,0.5]];portConstraint=eastwest;whiteSpace=wrap;html=1;" parent="AJZXfLpTL_0F0TIFlAnt-163" vertex="1">
          <mxGeometry y="60" width="180" height="70" as="geometry" />
        </mxCell>
        <mxCell id="AJZXfLpTL_0F0TIFlAnt-167" value="" style="endArrow=block;endSize=16;endFill=0;html=1;rounded=0;" parent="1" source="AJZXfLpTL_0F0TIFlAnt-145" target="AJZXfLpTL_0F0TIFlAnt-130" edge="1">
          <mxGeometry width="160" relative="1" as="geometry">
            <mxPoint x="-70" y="616" as="sourcePoint" />
            <mxPoint x="90" y="616" as="targetPoint" />
          </mxGeometry>
        </mxCell>
        <mxCell id="AJZXfLpTL_0F0TIFlAnt-168" value="" style="endArrow=block;endSize=16;endFill=0;html=1;rounded=0;" parent="1" source="AJZXfLpTL_0F0TIFlAnt-148" target="AJZXfLpTL_0F0TIFlAnt-130" edge="1">
          <mxGeometry width="160" relative="1" as="geometry">
            <mxPoint x="-520" y="625" as="sourcePoint" />
            <mxPoint x="-440" y="583" as="targetPoint" />
          </mxGeometry>
        </mxCell>
        <mxCell id="AJZXfLpTL_0F0TIFlAnt-169" value="" style="endArrow=block;endSize=16;endFill=0;html=1;rounded=0;" parent="1" source="AJZXfLpTL_0F0TIFlAnt-152" target="AJZXfLpTL_0F0TIFlAnt-130" edge="1">
          <mxGeometry width="160" relative="1" as="geometry">
            <mxPoint x="-510" y="504" as="sourcePoint" />
            <mxPoint x="-440" y="518" as="targetPoint" />
          </mxGeometry>
        </mxCell>
        <mxCell id="AJZXfLpTL_0F0TIFlAnt-170" value="" style="endArrow=block;endSize=16;endFill=0;html=1;rounded=0;" parent="1" source="AJZXfLpTL_0F0TIFlAnt-134" target="AJZXfLpTL_0F0TIFlAnt-130" edge="1">
          <mxGeometry width="160" relative="1" as="geometry">
            <mxPoint x="-496" y="372" as="sourcePoint" />
            <mxPoint x="-440" y="434" as="targetPoint" />
          </mxGeometry>
        </mxCell>
        <mxCell id="AJZXfLpTL_0F0TIFlAnt-171" value="" style="endArrow=block;endSize=16;endFill=0;html=1;rounded=0;" parent="1" source="AJZXfLpTL_0F0TIFlAnt-137" target="AJZXfLpTL_0F0TIFlAnt-130" edge="1">
          <mxGeometry width="160" relative="1" as="geometry">
            <mxPoint x="-358" y="304" as="sourcePoint" />
            <mxPoint x="-354" y="406" as="targetPoint" />
          </mxGeometry>
        </mxCell>
        <mxCell id="AJZXfLpTL_0F0TIFlAnt-172" value="" style="endArrow=block;endSize=16;endFill=0;html=1;rounded=0;" parent="1" source="AJZXfLpTL_0F0TIFlAnt-141" target="AJZXfLpTL_0F0TIFlAnt-130" edge="1">
          <mxGeometry width="160" relative="1" as="geometry">
            <mxPoint x="-209" y="336" as="sourcePoint" />
            <mxPoint x="-260" y="408" as="targetPoint" />
          </mxGeometry>
        </mxCell>
        <mxCell id="AJZXfLpTL_0F0TIFlAnt-173" value="" style="endArrow=block;endSize=16;endFill=0;html=1;rounded=0;" parent="1" source="AJZXfLpTL_0F0TIFlAnt-156" target="AJZXfLpTL_0F0TIFlAnt-130" edge="1">
          <mxGeometry width="160" relative="1" as="geometry">
            <mxPoint x="-230" y="508" as="sourcePoint" />
            <mxPoint x="-260" y="515" as="targetPoint" />
          </mxGeometry>
        </mxCell>
        <mxCell id="AJZXfLpTL_0F0TIFlAnt-174" value="" style="endArrow=block;endSize=16;endFill=0;html=1;rounded=0;" parent="1" source="AJZXfLpTL_0F0TIFlAnt-159" target="AJZXfLpTL_0F0TIFlAnt-130" edge="1">
          <mxGeometry width="160" relative="1" as="geometry">
            <mxPoint x="-185" y="676" as="sourcePoint" />
            <mxPoint x="-260" y="612" as="targetPoint" />
          </mxGeometry>
        </mxCell>
        <mxCell id="AJZXfLpTL_0F0TIFlAnt-175" value="" style="endArrow=block;endSize=16;endFill=0;html=1;rounded=0;" parent="1" source="AJZXfLpTL_0F0TIFlAnt-163" target="AJZXfLpTL_0F0TIFlAnt-130" edge="1">
          <mxGeometry width="160" relative="1" as="geometry">
            <mxPoint x="-520" y="786" as="sourcePoint" />
            <mxPoint x="-345" y="664" as="targetPoint" />
          </mxGeometry>
        </mxCell>
        <mxCell id="AJZXfLpTL_0F0TIFlAnt-176" value="0..." style="edgeLabel;resizable=0;html=1;align=left;verticalAlign=bottom;" parent="1" connectable="0" vertex="1">
          <mxGeometry x="-69.99999999999955" y="479" as="geometry" />
        </mxCell>
        <mxCell id="AJZXfLpTL_0F0TIFlAnt-177" value="0..." style="edgeLabel;resizable=0;html=1;align=left;verticalAlign=bottom;" parent="1" connectable="0" vertex="1">
          <mxGeometry x="-104.99999999999955" y="261" as="geometry" />
        </mxCell>
        <mxCell id="AJZXfLpTL_0F0TIFlAnt-178" value="0..." style="edgeLabel;resizable=0;html=1;align=left;verticalAlign=bottom;" parent="1" connectable="0" vertex="1">
          <mxGeometry x="-584.8888888888887" y="215" as="geometry" />
        </mxCell>
        <mxCell id="AJZXfLpTL_0F0TIFlAnt-179" value="0..." style="edgeLabel;resizable=0;html=1;align=left;verticalAlign=bottom;" parent="1" connectable="0" vertex="1">
          <mxGeometry x="-679.9999999999995" y="491" as="geometry" />
        </mxCell>
        <mxCell id="AJZXfLpTL_0F0TIFlAnt-180" value="0..." style="edgeLabel;resizable=0;html=1;align=left;verticalAlign=bottom;" parent="1" connectable="0" vertex="1">
          <mxGeometry x="-350.00000000000045" y="885" as="geometry" />
        </mxCell>
        <mxCell id="AJZXfLpTL_0F0TIFlAnt-181" value="0..." style="edgeLabel;resizable=0;html=1;align=left;verticalAlign=bottom;" parent="1" connectable="0" vertex="1">
          <mxGeometry x="-554.8888888888887" y="906" as="geometry" />
        </mxCell>
        <mxCell id="AJZXfLpTL_0F0TIFlAnt-182" value="Date" style="swimlane;fontStyle=1;align=center;verticalAlign=top;childLayout=stackLayout;horizontal=1;startSize=26;horizontalStack=0;resizeParent=1;resizeParentMax=0;resizeLast=0;collapsible=1;marginBottom=0;whiteSpace=wrap;html=1;" parent="1" vertex="1">
          <mxGeometry x="1970" y="245" width="160" height="168" as="geometry" />
        </mxCell>
        <mxCell id="AJZXfLpTL_0F0TIFlAnt-183" value="+ Day: int&lt;div&gt;+ Month: int&lt;/div&gt;&lt;div&gt;+ Year: int&lt;/div&gt;" style="text;strokeColor=none;fillColor=none;align=left;verticalAlign=top;spacingLeft=4;spacingRight=4;overflow=hidden;rotatable=0;points=[[0,0.5],[1,0.5]];portConstraint=eastwest;whiteSpace=wrap;html=1;" parent="AJZXfLpTL_0F0TIFlAnt-182" vertex="1">
          <mxGeometry y="26" width="160" height="52" as="geometry" />
        </mxCell>
        <mxCell id="AJZXfLpTL_0F0TIFlAnt-184" value="" style="line;strokeWidth=1;fillColor=none;align=left;verticalAlign=middle;spacingTop=-1;spacingLeft=3;spacingRight=3;rotatable=0;labelPosition=right;points=[];portConstraint=eastwest;strokeColor=inherit;" parent="AJZXfLpTL_0F0TIFlAnt-182" vertex="1">
          <mxGeometry y="78" width="160" height="8" as="geometry" />
        </mxCell>
        <mxCell id="AJZXfLpTL_0F0TIFlAnt-185" value="+Date(int,int,int): constructor&lt;div&gt;+Date(string)&lt;/div&gt;&lt;div&gt;DateWorld:string&lt;/div&gt;&lt;div&gt;== != &amp;gt; &amp;lt; - bool&lt;/div&gt;" style="text;strokeColor=none;fillColor=none;align=left;verticalAlign=top;spacingLeft=4;spacingRight=4;overflow=hidden;rotatable=0;points=[[0,0.5],[1,0.5]];portConstraint=eastwest;whiteSpace=wrap;html=1;" parent="AJZXfLpTL_0F0TIFlAnt-182" vertex="1">
          <mxGeometry y="86" width="160" height="82" as="geometry" />
        </mxCell>
        <mxCell id="AJZXfLpTL_0F0TIFlAnt-190" value="Game" style="swimlane;fontStyle=1;align=center;verticalAlign=top;childLayout=stackLayout;horizontal=1;startSize=26;horizontalStack=0;resizeParent=1;resizeParentMax=0;resizeLast=0;collapsible=1;marginBottom=0;whiteSpace=wrap;html=1;" parent="1" vertex="1">
          <mxGeometry x="1760" y="413" width="160" height="310" as="geometry" />
        </mxCell>
        <mxCell id="AJZXfLpTL_0F0TIFlAnt-191" value="+ static noName: Stadium&lt;div&gt;+ static gamesList: GamesList&lt;/div&gt;&lt;div&gt;+ GameDate: date&lt;/div&gt;&lt;div&gt;+ Place: Stadium&lt;/div&gt;&lt;div&gt;+ ViewersNumber: int&lt;/div&gt;&lt;div&gt;+Happenned: bool&lt;/div&gt;&lt;div&gt;+ ScoreFrist: int&lt;/div&gt;&lt;div&gt;+ScoreSecond: int&lt;/div&gt;&lt;div&gt;+Team1: string&lt;/div&gt;&lt;div&gt;+Team2: string&lt;/div&gt;" style="text;strokeColor=none;fillColor=none;align=left;verticalAlign=top;spacingLeft=4;spacingRight=4;overflow=hidden;rotatable=0;points=[[0,0.5],[1,0.5]];portConstraint=eastwest;whiteSpace=wrap;html=1;" parent="AJZXfLpTL_0F0TIFlAnt-190" vertex="1">
          <mxGeometry y="26" width="160" height="168" as="geometry" />
        </mxCell>
        <mxCell id="AJZXfLpTL_0F0TIFlAnt-192" value="" style="line;strokeWidth=1;fillColor=none;align=left;verticalAlign=middle;spacingTop=-1;spacingLeft=3;spacingRight=3;rotatable=0;labelPosition=right;points=[];portConstraint=eastwest;strokeColor=inherit;" parent="AJZXfLpTL_0F0TIFlAnt-190" vertex="1">
          <mxGeometry y="194" width="160" height="8" as="geometry" />
        </mxCell>
        <mxCell id="AJZXfLpTL_0F0TIFlAnt-193" value="+ Game(): condtructor&lt;div&gt;+ Result(): int&lt;/div&gt;&lt;div&gt;+ Info: string&lt;/div&gt;&lt;div&gt;+ to_file:string&lt;/div&gt;&lt;div&gt;+ FromFileLine(string): Game&lt;/div&gt;&lt;div&gt;+ Delete(): void&lt;/div&gt;" style="text;strokeColor=none;fillColor=none;align=left;verticalAlign=top;spacingLeft=4;spacingRight=4;overflow=hidden;rotatable=0;points=[[0,0.5],[1,0.5]];portConstraint=eastwest;whiteSpace=wrap;html=1;" parent="AJZXfLpTL_0F0TIFlAnt-190" vertex="1">
          <mxGeometry y="202" width="160" height="108" as="geometry" />
        </mxCell>
        <mxCell id="AJZXfLpTL_0F0TIFlAnt-194" value="GamesList" style="swimlane;fontStyle=1;align=center;verticalAlign=top;childLayout=stackLayout;horizontal=1;startSize=26;horizontalStack=0;resizeParent=1;resizeParentMax=0;resizeLast=0;collapsible=1;marginBottom=0;whiteSpace=wrap;html=1;" parent="1" vertex="1">
          <mxGeometry x="1870" y="794" width="160" height="256" as="geometry" />
        </mxCell>
        <mxCell id="AJZXfLpTL_0F0TIFlAnt-195" value="+ list: List of Games" style="text;strokeColor=none;fillColor=none;align=left;verticalAlign=top;spacingLeft=4;spacingRight=4;overflow=hidden;rotatable=0;points=[[0,0.5],[1,0.5]];portConstraint=eastwest;whiteSpace=wrap;html=1;" parent="AJZXfLpTL_0F0TIFlAnt-194" vertex="1">
          <mxGeometry y="26" width="160" height="26" as="geometry" />
        </mxCell>
        <mxCell id="AJZXfLpTL_0F0TIFlAnt-196" value="" style="line;strokeWidth=1;fillColor=none;align=left;verticalAlign=middle;spacingTop=-1;spacingLeft=3;spacingRight=3;rotatable=0;labelPosition=right;points=[];portConstraint=eastwest;strokeColor=inherit;" parent="AJZXfLpTL_0F0TIFlAnt-194" vertex="1">
          <mxGeometry y="52" width="160" height="8" as="geometry" />
        </mxCell>
        <mxCell id="AJZXfLpTL_0F0TIFlAnt-197" value="+GamesList() constructor&lt;div&gt;+Add(Game): void&lt;/div&gt;&lt;div&gt;+ GetEnumerator()&lt;/div&gt;&lt;div&gt;+ GetInfoByResult()&lt;/div&gt;&lt;div&gt;+GetWon()&lt;/div&gt;&lt;div&gt;+GetLost()&lt;/div&gt;&lt;div&gt;+GetDraw()&lt;/div&gt;&lt;div&gt;+GetPlanned()&lt;/div&gt;&lt;div&gt;+GamesInfo(): IEnumerable&lt;/div&gt;&lt;div&gt;+this[string, Date]: Game&lt;/div&gt;&lt;div&gt;+Sorted: bool&lt;/div&gt;&lt;div&gt;+SortGames(): void&lt;/div&gt;&lt;div&gt;+Remove(Game): void&lt;/div&gt;" style="text;strokeColor=none;fillColor=none;align=left;verticalAlign=top;spacingLeft=4;spacingRight=4;overflow=hidden;rotatable=0;points=[[0,0.5],[1,0.5]];portConstraint=eastwest;whiteSpace=wrap;html=1;" parent="AJZXfLpTL_0F0TIFlAnt-194" vertex="1">
          <mxGeometry y="60" width="160" height="196" as="geometry" />
        </mxCell>
        <mxCell id="AJZXfLpTL_0F0TIFlAnt-202" value="Player" style="swimlane;fontStyle=1;align=center;verticalAlign=top;childLayout=stackLayout;horizontal=1;startSize=26;horizontalStack=0;resizeParent=1;resizeParentMax=0;resizeLast=0;collapsible=1;marginBottom=0;whiteSpace=wrap;html=1;" parent="1" vertex="1">
          <mxGeometry x="1720" y="40" width="170" height="270" as="geometry" />
        </mxCell>
        <mxCell id="AJZXfLpTL_0F0TIFlAnt-203" value="+ static PlayerList: Players&lt;div&gt;+ Name: string&lt;/div&gt;&lt;div&gt;+ Surname: string&lt;/div&gt;&lt;div&gt;+ BirthDate: Date&lt;/div&gt;&lt;div&gt;+ Status: string&lt;/div&gt;&lt;div&gt;+ HealthStatus: string&lt;/div&gt;&lt;div&gt;+ Salary: double&lt;/div&gt;" style="text;strokeColor=none;fillColor=none;align=left;verticalAlign=top;spacingLeft=4;spacingRight=4;overflow=hidden;rotatable=0;points=[[0,0.5],[1,0.5]];portConstraint=eastwest;whiteSpace=wrap;html=1;" parent="AJZXfLpTL_0F0TIFlAnt-202" vertex="1">
          <mxGeometry y="26" width="170" height="114" as="geometry" />
        </mxCell>
        <mxCell id="AJZXfLpTL_0F0TIFlAnt-204" value="" style="line;strokeWidth=1;fillColor=none;align=left;verticalAlign=middle;spacingTop=-1;spacingLeft=3;spacingRight=3;rotatable=0;labelPosition=right;points=[];portConstraint=eastwest;strokeColor=inherit;" parent="AJZXfLpTL_0F0TIFlAnt-202" vertex="1">
          <mxGeometry y="140" width="170" height="8" as="geometry" />
        </mxCell>
        <mxCell id="AJZXfLpTL_0F0TIFlAnt-205" value="+ Info: string&lt;div&gt;+ Player(string, string, Date, string, string, double) - constructor&lt;/div&gt;&lt;div&gt;+ Player() - constructor&lt;/div&gt;&lt;div&gt;+ Delete(): void&lt;/div&gt;&lt;div&gt;+ to_file: string&lt;/div&gt;&lt;div&gt;+ FromFileLine(string): Player&lt;/div&gt;" style="text;strokeColor=none;fillColor=none;align=left;verticalAlign=top;spacingLeft=4;spacingRight=4;overflow=hidden;rotatable=0;points=[[0,0.5],[1,0.5]];portConstraint=eastwest;whiteSpace=wrap;html=1;" parent="AJZXfLpTL_0F0TIFlAnt-202" vertex="1">
          <mxGeometry y="148" width="170" height="122" as="geometry" />
        </mxCell>
        <mxCell id="AJZXfLpTL_0F0TIFlAnt-206" value="Players" style="swimlane;fontStyle=1;align=center;verticalAlign=top;childLayout=stackLayout;horizontal=1;startSize=26;horizontalStack=0;resizeParent=1;resizeParentMax=0;resizeLast=0;collapsible=1;marginBottom=0;whiteSpace=wrap;html=1;" parent="1" vertex="1">
          <mxGeometry x="1960" y="70" width="190" height="160" as="geometry" />
        </mxCell>
        <mxCell id="AJZXfLpTL_0F0TIFlAnt-207" value="+ list: List of Player" style="text;strokeColor=none;fillColor=none;align=left;verticalAlign=top;spacingLeft=4;spacingRight=4;overflow=hidden;rotatable=0;points=[[0,0.5],[1,0.5]];portConstraint=eastwest;whiteSpace=wrap;html=1;" parent="AJZXfLpTL_0F0TIFlAnt-206" vertex="1">
          <mxGeometry y="26" width="190" height="26" as="geometry" />
        </mxCell>
        <mxCell id="AJZXfLpTL_0F0TIFlAnt-208" value="" style="line;strokeWidth=1;fillColor=none;align=left;verticalAlign=middle;spacingTop=-1;spacingLeft=3;spacingRight=3;rotatable=0;labelPosition=right;points=[];portConstraint=eastwest;strokeColor=inherit;" parent="AJZXfLpTL_0F0TIFlAnt-206" vertex="1">
          <mxGeometry y="52" width="190" height="8" as="geometry" />
        </mxCell>
        <mxCell id="AJZXfLpTL_0F0TIFlAnt-209" value="+ Players(): constructor&lt;div&gt;+ Add(Player): void&lt;/div&gt;&lt;div&gt;+ GetEnumerator(): IEnumerator&lt;/div&gt;&lt;div&gt;+ PlayersInfo(): IEnumerator&lt;/div&gt;&lt;div&gt;+this[string]: Player&lt;/div&gt;&lt;div&gt;Remove(Player): void&lt;/div&gt;" style="text;strokeColor=none;fillColor=none;align=left;verticalAlign=top;spacingLeft=4;spacingRight=4;overflow=hidden;rotatable=0;points=[[0,0.5],[1,0.5]];portConstraint=eastwest;whiteSpace=wrap;html=1;" parent="AJZXfLpTL_0F0TIFlAnt-206" vertex="1">
          <mxGeometry y="60" width="190" height="100" as="geometry" />
        </mxCell>
        <mxCell id="AJZXfLpTL_0F0TIFlAnt-210" value="Stadium" style="swimlane;fontStyle=1;align=center;verticalAlign=top;childLayout=stackLayout;horizontal=1;startSize=26;horizontalStack=0;resizeParent=1;resizeParentMax=0;resizeLast=0;collapsible=1;marginBottom=0;whiteSpace=wrap;html=1;" parent="1" vertex="1">
          <mxGeometry x="2150" y="754" width="220" height="256" as="geometry" />
        </mxCell>
        <mxCell id="AJZXfLpTL_0F0TIFlAnt-211" value="+static StdiumList: StadiumList&lt;div&gt;+ static NoName:string&lt;/div&gt;&lt;div&gt;+static Unnamed:bool&lt;/div&gt;&lt;div&gt;+name:string&lt;/div&gt;&lt;div&gt;+number_of_seats: int&lt;/div&gt;&lt;div&gt;+price_per_seat: float&lt;/div&gt;&lt;div&gt;+planned_games: GamesList&lt;/div&gt;" style="text;strokeColor=none;fillColor=none;align=left;verticalAlign=top;spacingLeft=4;spacingRight=4;overflow=hidden;rotatable=0;points=[[0,0.5],[1,0.5]];portConstraint=eastwest;whiteSpace=wrap;html=1;" parent="AJZXfLpTL_0F0TIFlAnt-210" vertex="1">
          <mxGeometry y="26" width="220" height="114" as="geometry" />
        </mxCell>
        <mxCell id="AJZXfLpTL_0F0TIFlAnt-212" value="" style="line;strokeWidth=1;fillColor=none;align=left;verticalAlign=middle;spacingTop=-1;spacingLeft=3;spacingRight=3;rotatable=0;labelPosition=right;points=[];portConstraint=eastwest;strokeColor=inherit;" parent="AJZXfLpTL_0F0TIFlAnt-210" vertex="1">
          <mxGeometry y="140" width="220" height="8" as="geometry" />
        </mxCell>
        <mxCell id="AJZXfLpTL_0F0TIFlAnt-213" value="+Stadium(string)&lt;div&gt;+Stadium()&lt;/div&gt;&lt;div&gt;+Indo: string&lt;/div&gt;&lt;div&gt;+to_file:string&lt;/div&gt;&lt;div&gt;+FromFileLine(string):Stadium&lt;/div&gt;&lt;div&gt;+RemovePlannedGame(Game):void&lt;/div&gt;&lt;div&gt;+Delete(): void&lt;/div&gt;" style="text;strokeColor=none;fillColor=none;align=left;verticalAlign=top;spacingLeft=4;spacingRight=4;overflow=hidden;rotatable=0;points=[[0,0.5],[1,0.5]];portConstraint=eastwest;whiteSpace=wrap;html=1;" parent="AJZXfLpTL_0F0TIFlAnt-210" vertex="1">
          <mxGeometry y="148" width="220" height="108" as="geometry" />
        </mxCell>
        <mxCell id="AJZXfLpTL_0F0TIFlAnt-214" value="StadiumList" style="swimlane;fontStyle=1;align=center;verticalAlign=top;childLayout=stackLayout;horizontal=1;startSize=26;horizontalStack=0;resizeParent=1;resizeParentMax=0;resizeLast=0;collapsible=1;marginBottom=0;whiteSpace=wrap;html=1;" parent="1" vertex="1">
          <mxGeometry x="2410" y="735" width="180" height="160" as="geometry" />
        </mxCell>
        <mxCell id="AJZXfLpTL_0F0TIFlAnt-215" value="+list: List of Stadium" style="text;strokeColor=none;fillColor=none;align=left;verticalAlign=top;spacingLeft=4;spacingRight=4;overflow=hidden;rotatable=0;points=[[0,0.5],[1,0.5]];portConstraint=eastwest;whiteSpace=wrap;html=1;" parent="AJZXfLpTL_0F0TIFlAnt-214" vertex="1">
          <mxGeometry y="26" width="180" height="26" as="geometry" />
        </mxCell>
        <mxCell id="AJZXfLpTL_0F0TIFlAnt-216" value="" style="line;strokeWidth=1;fillColor=none;align=left;verticalAlign=middle;spacingTop=-1;spacingLeft=3;spacingRight=3;rotatable=0;labelPosition=right;points=[];portConstraint=eastwest;strokeColor=inherit;" parent="AJZXfLpTL_0F0TIFlAnt-214" vertex="1">
          <mxGeometry y="52" width="180" height="8" as="geometry" />
        </mxCell>
        <mxCell id="AJZXfLpTL_0F0TIFlAnt-217" value="+StadiumList()&lt;div&gt;+Add(Stadium):void&lt;/div&gt;&lt;div&gt;+GetEnumerator():IEnumerator&lt;/div&gt;&lt;div&gt;+this[string]:Stadium&lt;/div&gt;&lt;div&gt;+StadiumsInfo():IEnumerator&lt;/div&gt;&lt;div&gt;+Remove(Stadium):void&lt;/div&gt;" style="text;strokeColor=none;fillColor=none;align=left;verticalAlign=top;spacingLeft=4;spacingRight=4;overflow=hidden;rotatable=0;points=[[0,0.5],[1,0.5]];portConstraint=eastwest;whiteSpace=wrap;html=1;" parent="AJZXfLpTL_0F0TIFlAnt-214" vertex="1">
          <mxGeometry y="60" width="180" height="100" as="geometry" />
        </mxCell>
        <mxCell id="AJZXfLpTL_0F0TIFlAnt-221" value="" style="endArrow=none;endFill=0;endSize=24;html=1;rounded=0;startArrow=diamondThin;startFill=1;strokeWidth=2;targetPerimeterSpacing=0;startSize=22;" parent="1" source="AJZXfLpTL_0F0TIFlAnt-182" target="AJZXfLpTL_0F0TIFlAnt-190" edge="1">
          <mxGeometry width="160" relative="1" as="geometry">
            <mxPoint x="1770" y="810" as="sourcePoint" />
            <mxPoint x="1810" y="1000" as="targetPoint" />
          </mxGeometry>
        </mxCell>
        <mxCell id="AJZXfLpTL_0F0TIFlAnt-222" value="" style="endArrow=none;endFill=0;endSize=24;html=1;rounded=0;startArrow=diamondThin;startFill=1;strokeWidth=2;targetPerimeterSpacing=0;startSize=22;" parent="1" source="AJZXfLpTL_0F0TIFlAnt-182" target="AJZXfLpTL_0F0TIFlAnt-202" edge="1">
          <mxGeometry width="160" relative="1" as="geometry">
            <mxPoint x="2130" y="360" as="sourcePoint" />
            <mxPoint x="2190" y="300" as="targetPoint" />
          </mxGeometry>
        </mxCell>
        <mxCell id="AJZXfLpTL_0F0TIFlAnt-223" value="" style="endArrow=diamondThin;endFill=0;endSize=24;html=1;rounded=0;" parent="1" source="AJZXfLpTL_0F0TIFlAnt-210" target="AJZXfLpTL_0F0TIFlAnt-194" edge="1">
          <mxGeometry width="160" relative="1" as="geometry">
            <mxPoint x="2080" y="890" as="sourcePoint" />
            <mxPoint x="2120" y="940" as="targetPoint" />
          </mxGeometry>
        </mxCell>
        <mxCell id="AJZXfLpTL_0F0TIFlAnt-224" value="" style="endArrow=none;html=1;edgeStyle=orthogonalEdgeStyle;rounded=0;" parent="1" source="AJZXfLpTL_0F0TIFlAnt-202" target="AJZXfLpTL_0F0TIFlAnt-206" edge="1">
          <mxGeometry relative="1" as="geometry">
            <mxPoint x="2260" y="180" as="sourcePoint" />
            <mxPoint x="2420" y="180" as="targetPoint" />
            <Array as="points">
              <mxPoint x="1875" y="170" />
              <mxPoint x="1875" y="150" />
            </Array>
          </mxGeometry>
        </mxCell>
        <mxCell id="AJZXfLpTL_0F0TIFlAnt-225" value="0..." style="edgeLabel;resizable=0;html=1;align=left;verticalAlign=bottom;" parent="AJZXfLpTL_0F0TIFlAnt-224" connectable="0" vertex="1">
          <mxGeometry x="-1" relative="1" as="geometry" />
        </mxCell>
        <mxCell id="AJZXfLpTL_0F0TIFlAnt-226" value="1..." style="edgeLabel;resizable=0;html=1;align=right;verticalAlign=bottom;" parent="AJZXfLpTL_0F0TIFlAnt-224" connectable="0" vertex="1">
          <mxGeometry x="1" relative="1" as="geometry" />
        </mxCell>
        <mxCell id="AJZXfLpTL_0F0TIFlAnt-227" value="" style="endArrow=none;html=1;edgeStyle=orthogonalEdgeStyle;rounded=0;" parent="1" source="AJZXfLpTL_0F0TIFlAnt-210" target="AJZXfLpTL_0F0TIFlAnt-214" edge="1">
          <mxGeometry relative="1" as="geometry">
            <mxPoint x="2474" y="660" as="sourcePoint" />
            <mxPoint x="2603" y="560" as="targetPoint" />
          </mxGeometry>
        </mxCell>
        <mxCell id="AJZXfLpTL_0F0TIFlAnt-228" value="0..." style="edgeLabel;resizable=0;html=1;align=left;verticalAlign=bottom;" parent="AJZXfLpTL_0F0TIFlAnt-227" connectable="0" vertex="1">
          <mxGeometry x="-1" relative="1" as="geometry" />
        </mxCell>
        <mxCell id="AJZXfLpTL_0F0TIFlAnt-229" value="1..." style="edgeLabel;resizable=0;html=1;align=right;verticalAlign=bottom;" parent="AJZXfLpTL_0F0TIFlAnt-227" connectable="0" vertex="1">
          <mxGeometry x="1" relative="1" as="geometry" />
        </mxCell>
        <mxCell id="AJZXfLpTL_0F0TIFlAnt-230" value="1..." style="edgeLabel;resizable=0;html=1;align=right;verticalAlign=bottom;" parent="1" connectable="0" vertex="1">
          <mxGeometry x="1760.5555555555557" y="598" as="geometry" />
        </mxCell>
        <mxCell id="AJZXfLpTL_0F0TIFlAnt-231" value="1..." style="edgeLabel;resizable=0;html=1;align=right;verticalAlign=bottom;" parent="1" connectable="0" vertex="1">
          <mxGeometry x="1847.9999999999995" y="413.1111111111113" as="geometry" />
        </mxCell>
        <mxCell id="AJZXfLpTL_0F0TIFlAnt-232" value="" style="endArrow=open;html=1;endSize=12;startArrow=diamondThin;startSize=14;startFill=0;edgeStyle=orthogonalEdgeStyle;align=left;verticalAlign=bottom;rounded=0;" parent="1" source="AJZXfLpTL_0F0TIFlAnt-206" target="AJZXfLpTL_0F0TIFlAnt-202" edge="1">
          <mxGeometry x="-1" y="3" relative="1" as="geometry">
            <mxPoint x="1330" y="80" as="sourcePoint" />
            <mxPoint x="1550" y="90" as="targetPoint" />
            <Array as="points">
              <mxPoint x="1900" y="170" />
              <mxPoint x="1900" y="200" />
            </Array>
          </mxGeometry>
        </mxCell>
        <mxCell id="AJZXfLpTL_0F0TIFlAnt-233" value="" style="endArrow=none;html=1;edgeStyle=orthogonalEdgeStyle;rounded=0;" parent="1" source="AJZXfLpTL_0F0TIFlAnt-190" target="AJZXfLpTL_0F0TIFlAnt-194" edge="1">
          <mxGeometry relative="1" as="geometry">
            <mxPoint x="2380" y="892" as="sourcePoint" />
            <mxPoint x="2450" y="820" as="targetPoint" />
          </mxGeometry>
        </mxCell>
        <mxCell id="AJZXfLpTL_0F0TIFlAnt-234" value="0..." style="edgeLabel;resizable=0;html=1;align=left;verticalAlign=bottom;" parent="AJZXfLpTL_0F0TIFlAnt-233" connectable="0" vertex="1">
          <mxGeometry x="-1" relative="1" as="geometry" />
        </mxCell>
        <mxCell id="AJZXfLpTL_0F0TIFlAnt-235" value="1..." style="edgeLabel;resizable=0;html=1;align=right;verticalAlign=bottom;" parent="AJZXfLpTL_0F0TIFlAnt-233" connectable="0" vertex="1">
          <mxGeometry x="1" relative="1" as="geometry" />
        </mxCell>
        <mxCell id="AJZXfLpTL_0F0TIFlAnt-236" value="1" style="edgeLabel;resizable=0;html=1;align=right;verticalAlign=bottom;" parent="1" connectable="0" vertex="1">
          <mxGeometry x="1720.4444444444443" y="180" as="geometry" />
        </mxCell>
        <mxCell id="AJZXfLpTL_0F0TIFlAnt-237" value="1" style="edgeLabel;resizable=0;html=1;align=right;verticalAlign=bottom;" parent="1" connectable="0" vertex="1">
          <mxGeometry x="1720.5555555555557" y="130" as="geometry" />
        </mxCell>
        <mxCell id="AJZXfLpTL_0F0TIFlAnt-238" value="1" style="edgeLabel;resizable=0;html=1;align=right;verticalAlign=bottom;" parent="1" connectable="0" vertex="1">
          <mxGeometry x="2260" y="1010.8888888888891" as="geometry" />
        </mxCell>
        <mxCell id="AJZXfLpTL_0F0TIFlAnt-239" value="1" style="edgeLabel;resizable=0;html=1;align=right;verticalAlign=bottom;" parent="1" connectable="0" vertex="1">
          <mxGeometry x="2290" y="1009.4444444444443" as="geometry" />
        </mxCell>
      </root>
    </mxGraphModel>
  </diagram>
</mxfile>
